<?xml version="1.0"?>
<svg xmlns:rdf="http://www.w3.org/1999/02/22-rdf-syntax-ns#" xmlns="http://www.w3.org/2000/svg" xmlns:cc="http://web.resource.org/cc/" xmlns:xlink="http://www.w3.org/1999/xlink" xmlns:dc="http://purl.org/dc/elements/1.1/" xmlns:svg="http://www.w3.org/2000/svg" id="Layer_1" xml:space="preserve" viewBox="0 0 225.464 351.652" version="1.1" x="0px" y="0px" enable-background="new 0 0 225.464 351.652">
<g clip-rule="evenodd" fill-rule="evenodd">
	<path d="m73.457 26.164c-0.268 0.678-0.775 1.115-1.891 0.946-0.076-1.06 1.17-1.629 1.891-0.946z"/>
	<path d="m70.304 26.794c0.509-0.088 0.543 0.298 0.945 0.316 0.096 0.831-0.437 1.035-1.26 0.945-0.134-0.659 0.216-0.834 0.315-1.261z"/>
	<path d="m154.47 28.056c1.102-0.052 2.018 0.084 2.521 0.63-0.13 1.353-2.81 0.467-2.52-0.63z"/>
	<path d="m69.99 28.686c-0.252 0.694-0.633 1.259-1.576 1.261 0.04-0.565-0.387-0.665-0.315-1.261 0.401-0.431 1.486-0.431 1.891 0z"/>
	<path d="m153.21 28.686c0.406 0.995-2.611 0.995-2.207 0 0.57 0.002 1.84-0.849 2.21 0z"/>
	<path d="m150.06 29.001c-0.33 0.894-2.748 1.501-2.838 0 0.98-0.002 2.06-0.745 2.84 0z"/>
	<path d="m158.57 28.686c1.189-0.139 1.48 0.622 2.207 0.946-0.52 0.695-2.65 0.36-2.21-0.946z"/>
	<path d="m145.96 29.317c0.121 1.101-2.133 1.79-1.893 0.315 0.96 0.229 0.93-0.544 1.89-0.315z"/>
	<path d="m151.32 30.263c-0.07 0.98-1.57 0.533-2.521 0.63 0.29-0.764 1.97-1.086 2.52-0.63z"/>
	<path d="m155.1 30.263c-0.105 1.027-2.586 0.723-3.152 0.315 0.35-1.268 2.2-0.334 3.15-0.315z"/>
	<path d="m156.36 29.947c0.965-0.229 0.928 0.543 1.893 0.315-0.07 1.406-2.04 0.995-1.89-0.315z"/>
	<path d="m143.44 30.263c-0.264 1.103-1.449 1.283-2.838 1.26 0.26-1.103 1.45-1.282 2.84-1.26z"/>
	<path d="m147.85 30.578c-0.145 0.987-1.738 1.571-2.521 0.945 0.3-0.858 1.59-0.721 2.52-0.945z"/>
	<path d="m161.09 30.893c0.189 0.721-2.182 1.146-1.891 0 0.4-0.431 1.49-0.431 1.89 0z"/>
	<path d="m153.84 31.523c-0.006 0.864-1.488 0.749-1.893 0.315 0.27-1.124 0.78-0.037 1.89-0.315z"/>
	<path d="m156.36 32.154c-0.777 0.041-1.518 0.047-1.891-0.316 0.25-0.71 2.11-1.04 1.89 0.316z"/>
	<path d="m161.72 31.208c0.59 0.356 1.518 0.373 1.262 1.577-0.88-0.06-1.34-0.549-1.26-1.577z"/>
	<path d="m139.97 31.523c-0.168 0.987-1.176 1.137-2.205 1.262 0.47-0.695 0.84-1.477 2.21-1.262z"/>
	<path d="m144.7 32.154c-1.533-0.272-1.619 0.902-3.152 0.63 0.1-0.883 2.72-2.123 3.15-0.63z"/>
	<path d="m150.69 31.838c-0.062 0.47-2.062 1.265-1.891 0 0.66-0.686 0.9 0.159 1.89 0z"/>
	<path d="m159.2 32.785c-0.961-0.092-2.152 0.05-2.207-0.946 0.92-0.408 2.13-0.304 2.21 0.946z"/>
	<path d="m164.56 31.523c1.029-0.081 1.518 0.375 1.578 1.262-0.93-0.023-1.78-0.115-1.58-1.262z"/>
	<path d="m75.664 31.838c0.387 0.138 0.646 0.403 0.631 0.946-0.373 0.363-1.115 0.357-1.893 0.315-0.332-1.172 1.064-0.618 1.262-1.261z"/>
	<path d="m136.5 32.469c1.158-0.108 0.953 1.148 1.262 1.891-1.26 0.211-1.26-0.834-1.26-1.891z"/>
	<path d="m141.23 32.469c-0.229 1.033-1.291 1.231-2.521 1.261 0.23-1.033 1.29-1.231 2.52-1.261z"/>
	<path d="m145.33 32.469h2.838c-0.26 0.891 0.443 0.817 0.314 1.576-0.891-0.26-0.816 0.445-1.576 0.315 0.16-1.312-1.4-0.91-1.57-1.891z"/>
	<path d="m159.83 32.469c2.336 0.396 3.707 1.758 4.414 3.783-1.44-1.291-3.39-2.073-4.41-3.783z"/>
	<path d="m151.95 32.785c1.01 0.042 2.412-0.311 2.207 0.945-1.04-0.012-2.24 0.129-2.21-0.945z"/>
	<path d="m156.36 33.73c-0.777 0.042-1.518 0.048-1.891-0.315 0.51-0.578 1.86-0.908 1.89 0.315z"/>
	<path d="m83.859 35.622c1.25 0.704 3.593-0.403 4.414 1.26 0.992 0.153 0.236-1.444 0.945-1.576 2.279 0.873 0.443 2.932-0.631 3.783-1.938 0.257-1.131-2.23-3.467-1.576-0.482 1.428 2.059-0.167 1.576 1.26-2.116 0.016-3.806-0.397-5.674-0.63-0.262-0.891 0.443-0.817 0.314-1.577-1.037 1.38-3.342 1.492-5.359 1.892 2 0.732 5.357 0.107 7.881 0.315 0.089 0.719-0.076 1.186-0.63 1.262 0.682 1.734 4.782 0.05 5.358 1.891-1.711 0.241-2.553-0.389-4.098-0.315 4.135 7.238-7.486 12.685-10.402 6.305-2.08 0.398-2.07-1.293-3.468-1.576 0.005-1.045 1.781-0.32 2.207-0.945-0.478-0.954-1.384 0.261-2.207 0-0.234-1.285 1.016-1.085 0.63-2.522h1.893c-0.129-0.607-1.223-0.249-0.947-1.261h1.577c-0.095-1.336-1.326 0.204-1.577-0.63-0.298-1.14 1.242-0.44 1.893-0.63v-0.946c-0.539-0.918-1.147 0.715-2.207 0.316-0.188-1.659 1.48-1.462 2.521-1.892-0.64-0.725-1.886-0.846-3.152-0.946 1.648-2.554 7.244-2.492 10.719-2.206-1.117-0.88-3.339-0.655-5.044-0.946 3.612-1.809 7.669 0.784 11.032 1.261-0.618 1.656-3.083-0.452-4.097 0.629zm-7.25 1.891c0.273-0.931-2.371-1.5-1.576-0.946 0.744 0.098 0.587 1.095 1.576 0.946zm4.728 6.304c-0.662-0.48 0.332-1.958 1.261-1.892-0.14-1.015-0.481-1.83-1.891-1.576-0.191 0.755-0.454 1.438-0.315 2.522-1.322-1.139-1.613 1.062-2.521 0.945-0.936-0.12-0.982-2.338-2.838-2.207 0.234 0.97-0.865 0.606-0.631 1.576 1.129-0.184 0.959 0.933 0.947 1.892 1.595-0.335 1.589 0.932 2.521 1.261 1.332-0.663 2.191-1.8 3.467-2.521z"/>
	<path d="m146.28 34.36c-0.215 0.941-1.254 1.057-2.521 0.946 1.08-0.94 0.207-1.056-1.26-0.946 1.01-2.58 1.84 0.164 3.78 0z"/>
	<path d="m149.43 33.1h1.893c-0.06 0.912-2.03 1.525-1.89 0z"/>
	<path d="m163.61 33.1c1.029-0.082 1.518 0.375 1.576 1.261-1.03 0.081-1.52-0.375-1.58-1.261z"/>
	<path d="m71.566 33.73c0.27 1.192-1.412 1.116-1.893 0.63 0.036-0.804 1.057-0.626 1.893-0.63z"/>
	<path d="m74.402 33.73c-0.302 1.273-1.497 1.655-3.152 1.576 0.704-0.872 1.757-1.395 3.152-1.576z"/>
	<path d="m160.15 34.36c-0.271 0.651-2.195 0.333-2.521 0 0.21-1.15 2.16-0.571 2.52 0z"/>
	<path d="m62.423 34.045c1.576-0.313 1.543 0.979 2.838 0.946 1.238 0.056 3.757-1.745 4.098 0.315-2.551 0.498-6.185 1.844-6.936-1.261z"/>
	<path d="m141.55 34.045c0.494 1.083-2.109 1.497-1.891 0.315 0.74 0.008 0.92-0.543 1.89-0.315z"/>
	<path d="m166.45 34.045c1.244-0.403 0.762 0.919 1.576 0.946-0.53 1.016-1.76 0.41-1.58-0.946z"/>
	<path d="m137.76 34.676c1.123-0.072 1.646 0.453 1.574 1.576-0.98-0.061-1.51-0.585-1.57-1.576z"/>
	<path d="m154.16 34.991c0.959-0.013 2.076-0.184 1.893 0.945-0.94-0.005-1.92 0.03-1.89-0.945z"/>
	<path d="m160.15 34.991c1.191-0.036 1.695 0.617 1.891 1.576-1.2 0.036-1.7-0.617-1.89-1.576z"/>
	<path d="m143.44 35.306c-0.246 0.91-1.525 0.787-2.207 1.261-0.234 0.971 0.865 0.606 0.631 1.577-1.309 0.361-1.229-0.663-2.207-0.63 0.93-1.076 1.56-2.437 3.79-2.208z"/>
	<path d="m165.19 35.306c1.275-0.118 1.234 1.078 1.893 1.576-0.67 0.748-1.95-0.556-1.89-1.576z"/>
	<path d="m70.62 35.937c-0.044 1.322-1.444 1.288-2.837 1.261 0.469-0.896 1.592-1.14 2.837-1.261z"/>
	<path d="m67.466 36.567c-0.466 1.534-4.595 1.827-5.358 0.315 2.061 0.171 3.589-0.194 5.358-0.315z"/>
	<path d="m153.53 36.882c-0.564 0.57-1.805 1.507-2.523 0.946-0.17-1.298 1.7-1.604 2.52-0.946z"/>
	<path d="m155.42 36.567c0.293 0.336 1.162 0.098 0.945 0.946-1.066-0.12-1.346 0.546-1.891 0.945-1.44-0.52 0.53-1.336 0.95-1.891z"/>
	<path d="m90.794 36.882c0.902-0.062 1.721-0.039 1.576 0.946-0.804-0.036-1.62-0.059-1.576-0.946z"/>
	<path d="m98.359 89.211c-0.422-0.804-0.6 1.26-0.945 1.576-5.17-5.564-8.51-13.286-8.51-23.327 0-17.562 9.83-29.497 24.902-30.578 25.934-1.859 34.621 33.286 23.012 52.33 0.324 1.059-0.98 0.49-1.576 0.63 1.213 3.303 5.203 1.265 7.881 1.892 4.812 1.125 6.992 6.342 4.729 11.664-6.973-0.581-13.596-1.755-20.49-1.261-2.977 0.213-5.646 1.557-8.512 1.891-3.258 0.381-6.426-0.576-9.455-0.63-1.869-0.034-4.895 1.393-5.674-0.945 3.094-0.537 5.953 0.817 8.826 0.945 4.605 0.206 8.869-1.866 13.555-2.207 5.688-0.414 10.775 1.265 16.707 0.631-1.943-2.522-5.742-1.401-8.826-1.261-2.352 0.106-4.707-0.149-6.936 0-3.646 0.244-7.416 1.29-11.348 1.576-4.4 0.32-8.662-0.712-12.926-0.631 2.107-2.468 4.252-0.642 6.621-0.315 9.42 1.299 21.23-3.964 30.893-1.26-1.434-2.937-4.857-5.145-8.195-6.936-5.127-2.747-11.078-4.478-19.545-3.782-10.033 0.823-17.25 7.122-22.067 12.609-2.853 0.331-4.479-0.565-5.989-1.577-1.436-9.729 12.158-4.436 13.855-11.039zm15.131-4.413c0.381-13.259 1.59-28.433 0.631-41.611-0.119-1.63-0.334-3.641-1.262-5.043 0.35 15.411-0.74 32.266 0.63 46.654zm4.73 0c-0.141-15.17 0.197-31.528 0-45.709-0.416-0.004-0.289-0.553-0.631-0.63-0.09 15.033-1.18 32.323 0.63 46.339zm-2.21 1.26c1.602-12.492-1.182-27.634-0.314-39.719 0.197-2.77 1.363-5.933 0-7.566-0.86 14.769-1.22 32.988 0.31 47.285zm4.1-46.023c-0.428 14.382-1.109 29.856-0.314 44.447 0.016 0.332 0.404 0.249 0.314-0.315 0.314-14.817 0.654-29.609 0.631-44.764-0.07-0.245-0.264-0.366-0.631-0.315v0.947zm-11.35 29.946c0.127 0.343 0.26 0.234 0.314-0.315 0.895-8.944-0.049-20.04 0.316-29.947-0.07-0.246-0.266-0.367-0.631-0.316-0.06 10.236-0.68 20.513 0 30.578zm-2.52-29.001v14.816c0 5.045-0.729 10.155 0.945 13.87 1.051-9.628-0.682-20.113 0.314-29.631-0.068-0.246-0.264-0.367-0.629-0.315 0.01 0.626-0.85 0.4-0.62 1.26zm16.39 5.044c0.098-1.926 0.906-4.95-0.314-6.304-0.61 1.932-0.84 4.728 0.31 6.304zm1.26 23.328c1.945-0.984 1.279-3.602 1.262-5.674-0.066-7.585 0.049-16.246 0-23.327h-0.947c-0.5 9.261-0.25 19.281-0.31 29.001zm-12.92-0.631c-0.236 6.122-1.828 12.156 0.316 17.653 0.686-14.235 0.141-29.701 0.316-44.448-0.451-0.075-0.533-0.519-0.947-0.63-0.59 9.442 0.65 18.643 0.31 27.425zm-5.99-0.946c-0.086-8.689 1.043-17.897-0.631-25.534-0.89 8.029-1.01 18.257 0.63 25.534zm22.07 0.946c1.244-2.403 0.631-6.162 0.631-10.088 0-6.03 0.559-12.84-1.262-16.393-0.08 8.939-0.89 18.477 0.63 26.481zm-25.22-10.718c0 4.101-0.504 8.415 0.631 11.663 0.988-8-0.312-16.822 0.314-26.164-0.52-0.005-0.176-0.875-0.631-0.946-0.47 4.768-0.31 10.097-0.31 15.447zm27.11-14.186c-0.197 6.141 0.264 13.579 0 19.545-0.094 2.137-1.234 4.671 0.631 5.989 0.529-8.223 1.184-18.125 0-26.165-0.07-0.246-0.264-0.367-0.631-0.315v0.946zm-29.003 31.208c0.018 0.332 0.404 0.248 0.314-0.315 0.141-9.297 0.984-21.951-0.314-29.316-0.7 9.942-0.462 19.566 0.001 29.631zm-1.893-16.076c0.877-3.098 0.977-8.324-0.314-11.033 0.209 3.574-0.42 7.984 0.314 11.033zm34.676 10.718c-0.195 7.047-0.824 14.179 0.945 20.175-0.145-13.392 2.139-29.249-0.629-41.295-0.32 6.811-0.11 13.973-0.31 21.12zm-1.58 20.49c1.32-5.767 0.16-12.094 0.314-18.599 0.189-7.9 1.65-16.973-0.314-22.697 0.67 14.129-1.79 28.105 0 41.296zm4.73-2.837c-0.074-0.783-0.305-1.47-0.314-2.207-0.139-10.486 2.484-26.325 0-34.36 0.77 12.622-2.44 25.882 0.31 36.567zm-40.031-5.989c0.016 0.331 0.402 0.248 0.314-0.315 0.27-9.562 1.564-21.116-0.314-29.947 0.047 10.311-0.683 20.189 0 30.262zm25.851 2.206c1.193-0.212 0.566-1.811 0.631-2.521 0.773-8.675 0.768-19.004 0.314-28.056-0.068-0.246-0.264-0.367-0.629-0.315-0.34 10.344-0.91 20.408-0.31 30.892zm-27.429-12.924c0.445-5.099 0.789-12.46-0.629-16.708 0.151 5.92-0.978 11.864 0.629 16.708zm43.189-14.817c0.207 9.073-1.262 19.698 0.316 28.056 1.223-8.813 0.414-19.297 0.314-28.686-0.07-0.246-0.264-0.367-0.631-0.316v0.946zm-45.394 16.392c0.107 0.336 0.283 0.241 0.314-0.315 0.213-3.84 0.852-10.76-0.314-14.501-0.357 5.109-0.277 9.681 0 14.816zm47.914 4.414c0.025-4.758 1.543-10.301-0.314-14.186 0.19 4.588-1.19 10.314 0.31 14.186zm-41.926 10.718c1.344-6.818 0.309-15.838 0-23.012-0.511 6.948-0.535 16.067 0 23.012zm-7.25-18.914c-0.086-0.675 0.244-3.363-0.315-2.521 0.086 0.674-0.243 3.362 0.315 2.521zm18.286 17.652c-0.451-4.151 1.674-8.121-0.314-11.033-0.76 3.436-0.84 7.926 0.31 11.033zm15.44 2.207c0.176-3.802-0.576-8.664 1.26-10.403 0.395 3.93-1.07 7.783 0.631 10.403 0.525-3.152 0.705-6.65 0.631-10.403-1.355 0.084-2.574-1.612-3.469-0.945 0.61 3.097-1.55 8.908 0.95 11.348zm-22.38 0.946c0.498-3.598 1.766-8.678-0.314-11.349-0.45 3.245-0.69 8.553 0.31 11.349zm1.58-10.717c0.904 2.878-0.447 8.011 0.945 10.402 0.002-3.78 0.074-7.49 0.945-10.402 1.582 2.2-0.301 7.866 1.262 10.086 0.689-3.093-0.111-7.676 0.629-10.718-1.18 0.284-2.66 0.273-3.77 0.632zm23.96 3.782c-0.119 2.723 0.039 5.8 1.26 6.936 0.318-3.79 0.59-8.288-0.629-11.349-0.1 1.277-0.56 2.814-0.63 4.413zm-27.11 8.826c-0.1-3.508 0.637-6.24 0-9.457-0.068-0.246-0.264-0.367-0.629-0.315 0.369 3.617-1.168 7.399 0.629 9.772zm-3.785 2.522c0.922 0.082 0.967-0.712 1.891-0.63 0.053-0.789-0.484-0.986-0.945-1.261-0.128 0.819-0.942 0.951-0.946 1.891zm46.335 2.522c-0.004-0.836 0.176-1.856-0.629-1.891 0.29 0.553 0.11 1.573 0.63 1.891z"/>
	<path d="m150.06 37.513c-0.332 0.824-1.281 1.031-2.521 0.945 0.22-1.215 1.61-2.166 2.52-0.945z"/>
	<path d="m168.03 36.882c1.033-0.049 1.512 1.288 0.945 1.892-0.69-0.268-1.12-0.777-0.95-1.892z"/>
	<path d="m163.93 39.089c-1.164 0.113-1.318-0.784-1.576-1.576 0.66-0.569 1.67 0.433 1.58 1.576z"/>
	<path d="m164.56 37.198c0.783 0.164 1.125 0.768 1.578 1.261-0.098 0.428-0.791 0.262-1.262 0.315-0.27-0.366-0.42-0.845-0.32-1.576z"/>
	<path d="m147.22 37.513c0.068 0.657-1.902 1.704-1.891 0.315 0.74 0.007 0.93-0.543 1.89-0.315z"/>
	<path d="m158.57 38.458c-1.277-0.296-2.238 1.686-2.521-0.315 0.97 0.388 2.39-1.209 2.52 0.315z"/>
	<path d="m166.76 38.144c1.184-0.238 0.688 1.204 1.576 1.26-0.56 0.848-1.87-0.205-1.58-1.26z"/>
	<path d="m70.935 38.458c0.221 1.092-1.105 1.13-1.576 0.63 0.267-0.466 0.793-0.677 1.576-0.63z"/>
	<path d="m144.7 38.773c-0.01 1.04-0.896 1.205-1.891 1.262 0.01-1.04 0.89-1.205 1.89-1.262z"/>
	<path d="m91.74 39.089c1.342 0.551 2.709 1.076 3.783 1.892-1.148 0.819-2.807-0.546-4.098-0.63 0.244-0.282 0.338-0.713 0.315-1.262z"/>
	<path d="m150.38 39.404c9.166-1.548 8.518 11.928 1.574 12.294-6.77 0.358-9.45-10.964-1.57-12.294zm1.57 1.576c-0.912 0.437 1.379 0.266 1.262 0.945-0.436 0.931-1.455 1.276-1.891 2.207 1.504-0.156 0.711 1.638 0.314 2.207-2.057-0.255-3.354-1.27-5.043-1.892v1.892c1.797 0.558 4.41 1.478 6.619 0.63 0.551-1.112 0.248-2.594 0-3.783 1.459-0.289 2.275 0.739 2.838-0.315-0.8-1.065-2.34-2.807-4.1-1.891z"/>
	<path d="m161.72 42.557c-0.965-0.229-0.928 0.543-1.893 0.315 0.283-0.557 0.762-0.92 0.947-1.577 0.119-1.591-2.279-0.663-2.521-1.892 2.07-1.033 3.05 1.506 3.46 3.154z"/>
	<path d="m88.587 40.035c-0.006 0.916-1.781 0.745-2.206 0.315 0.007-0.916 1.782-0.745 2.206-0.315z"/>
	<path d="m144.38 40.035c0.369 0.05 0.266 0.575 0.314 0.945-0.365 0.265-0.844 0.416-1.576 0.315 0.11-0.739 0.99-0.705 1.27-1.26z"/>
	<path d="m162.04 40.035c0.887 0.059 1.344 0.548 1.262 1.576-1.17 0.22-1.39-0.499-1.26-1.576z"/>
	<path d="m164.24 40.035c0.777 0.274 1.367 0.734 1.26 1.891-1-0.041-1.38-0.714-1.26-1.891z"/>
	<path d="m165.82 40.035c1.146-0.201 1.238 0.652 1.262 1.576-0.88-0.059-1.34-0.549-1.26-1.576z"/>
	<path d="m93.316 41.611c-0.619 2.339-2.16-0.439-3.782 0 0.679-1.475 2.469 0.146 3.782 0z"/>
	<path d="m168.03 41.295c0.746 0.174 1.309 1.219 0.631 1.892-0.81-0.035-0.63-1.056-0.63-1.892z"/>
	<path d="m67.783 42.241c-0.358 0.868-2.434 0.81-2.521-0.315 0.761-0.726 1.53 0.321 2.521 0.315z"/>
	<path d="m87.642 42.241c0.27 1.192-1.412 1.116-1.891 0.631 0.036-0.806 1.055-0.626 1.891-0.631z"/>
	<path d="m89.849 42.241c0.088 1.011-1.381 1.146-1.893 0.631 0.037-0.806 1.057-0.626 1.893-0.631z"/>
	<path d="m169.92 42.241c0.938-0.066 1.113 1.125 0.631 1.577-1.09 0.22-1.13-1.106-0.63-1.577z"/>
	<path d="m162.98 42.557c0.746 0.174 1.307 1.219 0.629 1.891-1.19 0.27-1.11-1.411-0.63-1.891z"/>
	<path d="m91.11 42.872c0.509-0.089 0.542 0.297 0.946 0.315 0.275 1.012-0.818 0.653-0.946 1.261-0.738-0.081-0.182-1.385 0-1.576z"/>
	<path d="m165.19 42.872c0.764 0.182 0.701 1.19 0.947 1.891-1.45 0.166-1.28-1.062-0.95-1.891z"/>
	<path d="m166.45 42.872c1.129-0.149 1.885 2.04 0.314 1.891 0.24-0.964-0.54-0.928-0.31-1.891z"/>
	<path d="m79.446 45.079c-0.228 0.257-2.181 0.845-1.892-0.316-0.289-1.16 1.664-0.572 1.892-0.315v0.631z"/>
	<path d="m168.03 44.448h0.945c-0.172 0.458 0.369 1.63-0.314 1.576-1.07 0.324-0.5-0.981-0.64-1.576z"/>
	<path d="m91.425 44.763c0.5 0.027 1.201-0.151 1.26 0.316 0.346 1.106-1.933 0.844-1.26-0.316z"/>
	<path d="m88.904 45.709c1.385-0.125 2.134 0.388 2.206 1.576-1.214-0.047-1.814-0.708-2.206-1.576z"/>
	<path d="m166.45 46.024c1.092-0.221 1.131 1.105 0.631 1.577-0.69-0.047-0.68-0.795-0.63-1.577z"/>
	<path d="m167.71 47.285h0.947c0.012 0.958 0.184 2.075-0.947 1.892v-1.892z"/>
	<path d="m89.849 47.601c0.156 1.628-2.37 0.572-3.152 1.261-0.067-1.538 1.674-1.269 3.152-1.261z"/>
	<path d="m162.35 47.916c1.303-0.097 0.586 2.204-0.631 1.576 0.14-0.6 0.68-0.792 0.63-1.576z"/>
	<path d="m169.29 48.546c1.6 0.93-0.578 2.515-0.945 3.467 1.133 0.655 3.41 0.164 5.045 0.315-1.166 1.251-4.471 0.364-6.621 0.631 0.69-1.63 2.37-2.262 2.53-4.413z"/>
	<path d="m63.054 49.492h0.945c0.182 0.191 0.738 1.496 0 1.576-0.956 0.116-0.654-1.027-0.945-1.576z"/>
	<path d="m84.49 49.492c1.118 0.038 1.064 1.248 1.576 1.892-0.923 0.082-0.969-0.713-1.891-0.63 0.244-0.282 0.338-0.713 0.315-1.262z"/>
	<path d="m63.054 51.068c-0.938 0.533-2.836 0.106-2.837 1.577-0.948 0.317-0.56-0.703-0.63-1.261-1.633-0.322-4.621 1.43-5.045-0.63 2.014-1.027 5.471 1.125 6.62-0.946 1.107-0.057 1.037 1.064 1.892 1.26z"/>
	<path d="m64.63 50.123c0.248-0.724 1.951-0.307 1.576 0.63-1.005 0.27-0.974-0.497-1.576-0.63z"/>
	<path d="m165.82 49.807c1.266 0.332-0.041 1.281 0.316 2.522-0.473 0.369-1.291 0.392-1.578 0.946-0.51-0.835 1.33-2.025 1.26-3.468z"/>
	<path d="m64.315 53.59c-1.04 0.47 1.055 0.372 0.631 1.26-0.192 0.544-1.495-0.023-1.577 0.631-0.938-0.007-0.403-1.487-0.945-1.892-0.701 0.244-1.709 0.182-1.891 0.945-1.668-1.761-5.695 0.649-7.251-0.945 1.729-2.492 7.122 1.419 8.511-1.577 0.896 0.156 0.454 1.648 1.893 1.262 0.924-0.268-0.41-0.793 0-1.577 2.293 0.229 2.373 2.67 4.413 3.152 0.088 0.509-0.299 0.543-0.315 0.946-1.593-0.298-2.247-1.535-3.469-2.205z"/>
	<path d="m65.891 52.645c1.538-1.802 2.612 1.758 0 0z"/>
	<path d="m78.816 52.329c-0.047 0.689-0.794 0.677-1.576 0.631-0.221-1.092 1.105-1.131 1.576-0.631z"/>
	<path d="m71.88 52.329c0.73-0.101 1.211 0.051 1.576 0.316 0.092 0.817-2.131 1.094-1.576-0.316z"/>
	<path d="m76.924 52.645c-0.046 0.689-0.794 0.677-1.575 0.63-0.223-1.092 1.104-1.131 1.575-0.63z"/>
	<path d="m162.67 52.329c-0.076 1.29-1.316 1.417-2.521 1.576 0.34-1.018 1-1.729 2.52-1.576z"/>
	<path d="m79.13 53.905c-0.871 0.494-1.752 0.979-2.836 1.262v-1.262c0.87 0.945 1.852-1.06 2.836 0z"/>
	<path d="m75.349 55.167c-0.785 0.048-0.977-0.496-1.577-0.631 0.136-1.071 2.056-0.735 1.577 0.631z"/>
	<path d="m166.45 53.905c-0.498 0.658-0.73 1.582-1.893 1.577-0.16-1.315 0.8-1.514 1.89-1.577z"/>
	<path d="m159.83 54.22c0.07 1.125-1.637 1.422-2.205 0.946 0.32-0.733 1.09-1.017 2.21-0.946z"/>
	<path d="m70.935 54.535c-0.659 0.99 0.286 1.759-0.315 2.522 1.167 0.222 0.786-1.105 1.261-1.576h1.576c-0.062 0.902-0.039 1.72 0.945 1.576-1.531 0.659-4.857 1.864-6.304 0.63 0.187-0.697 2.243-0.897 0.63-1.576 0.477-0.784 1.081-1.44 2.207-1.576z"/>
	<path d="m53.597 55.167c2.061 0.68 6.004-0.851 7.881 0.63-2.264 0.38-5.119 1.438-7.566 0.63-0.245-0.281-0.338-0.712-0.315-1.26z"/>
	<path d="m67.783 57.372c-1.915 0.34-2.148-1.004-3.783-0.945 0.466-1.633 4.113-1.039 3.783 0.945z"/>
	<path d="m156.68 55.481c1.057 0.873-0.768 1.521-1.891 1.26-0.4-1.45 1.59-0.501 1.89-1.26z"/>
	<path d="m74.087 55.796c0.965-0.229 0.927 0.543 1.891 0.315-0.014 0.949-2.237 0.916-1.891-0.315z"/>
	<path d="m160.78 55.796c0.33 1.386-1.408 1.652-1.893 1.261 0.33-0.714 0.95-1.145 1.89-1.261z"/>
	<path d="m151.63 56.112c0.402 0.438 1.488 0.192 1.893 0.63-0.29 0.673-2.29 0.431-1.89-0.63z"/>
	<path d="m163.61 56.427c-0.01 1.04-0.896 1.205-1.891 1.261 0.01-1.04 0.9-1.206 1.89-1.261z"/>
	<path d="m61.792 56.742h1.262c0.574 0.973 0.822 2.162 0 3.152-1.527-0.349-0.465-1.78-1.262-3.152z"/>
	<path d="m158.26 57.688c0.451 0.984-2.344 0.984-1.893 0 0.21-0.247 1.75-0.702 1.89 0z"/>
	<path d="m60.533 58.003c-1.789 1.153-6.121 1.298-8.196 0.315 1.811-1.545 5.663-0.106 8.196-0.315z"/>
	<path d="m66.207 59.264c-0.789 0.631-2.48 0.146-2.207-1.26 0.978-0.452 2.039 0.052 2.207 1.26z"/>
	<path d="m155.73 57.688c0.104 1.088-1.646 1.153-2.205 0.631 0.05-0.902 1.32-0.578 2.21-0.631z"/>
	<path d="m69.359 60.209c-1.016-0.14-1.707-0.604-2.838-0.63 0.389-1.277 3.122-1.275 2.838 0.63z"/>
	<path d="m73.142 59.894c-0.422 0.45-1.787 0.45-2.207 0 0.082-1.408 2.33-1.599 2.207 0z"/>
	<path d="m75.978 58.949c0.174 0.762-2.465 1.143-2.206 0 0.894-0.329 1.313-0.329 2.206 0z"/>
	<path d="m51.705 59.894c3.25-0.096 6.256 0.05 9.143 0.315-2.056 0.703-7.86 2.112-9.143-0.315z"/>
	<path d="m64.315 60.209c0.804 0.036 1.622 0.06 1.576 0.946-0.833-0.008-1.975 0.294-1.576-0.946z"/>
	<path d="m61.163 62.731c-2.551 0.841-7.47 0.897-10.403 0.316 2.486-1.647 7.177-0.639 10.403-0.316z"/>
	<path d="m61.792 67.775c-3.168 1.411-8.004 0.852-11.662 0.316 2.924-1.574 8.015-0.095 11.662-0.316z"/>
	<path d="m131.78 95.831c-9.236 1.239-21.656 3.805-30.578 0.631 3.279-1.146 6.061 0.705 9.143 0.945 7.27 0.567 13.97-3.49 21.44-1.576z"/>
	<path d="m130.51 97.722c-8.455 1.02-20.256 4.151-28.371 0.63 1.873-1.315 4.979 0.382 6.936 0.946 8.2 0.742 13.62-2.97 21.43-1.576z"/>
	<path d="m137.76 98.668c-1.406-0.728-5.74 0.691-5.99-0.63 1.36-0.317 5.59-1.024 5.99 0.63z"/>
	<path d="m194.82 101.5v-1.261c0.604 0.132 1.357 0.114 1.26 0.945-0.56-0.03-0.66 0.4-1.26 0.32z"/>
	<path d="m189.46 101.82c-6.547 2.181-15.412 0.055-23.012 0.315 5.51-1.35 15.78-0.32 23.01-0.32z"/>
	<path d="m144.7 104.34c-5.1 1.469-10.445 0.008-15.445 0-3.971-0.008-7.43 1.452-11.35 1.891-4.506 0.505-8.691-1.002-13.238-0.315 2.209-2.734 6.004-0.414 8.826-0.315 4.906 0.171 9.889-2.349 15.762-2.207 4.79 0.12 9.47 1.44 15.44 0.95z"/>
	<path d="m189.15 104.34c-0.701 0.913-2.449 0.866-3.469 0.945-6.369 0.496-13.369-0.957-19.543-0.315 1.174-1.2 3.059-0.534 4.729-0.63 5.31-0.3 11.71 0.13 18.28 0.01z"/>
	<path d="m148.17 106.55c-6.514 1.97-15.047-0.218-23.012 0.316-6.883 0.461-13.549 2.709-19.861 0.946 2.779-2.216 6.344-0.051 9.457 0 4.342 0.071 8.844-1.864 13.557-1.892 6.57-0.05 12.8 1.09 19.85 0.62z"/>
	<path d="m188.83 107.18c-6.973 2.36-15.617-0.414-23.957 0.315 7.05-1.62 15.81 0.31 23.96-0.32z"/>
	<path d="m79.446 107.81c-0.979 1.277-2.313 0.523-4.097 0.63 0.539-1.04 2.652-0.5 4.097-0.63z"/>
	<path d="m150.69 109.07c-14.99 0.456-30.424 0.47-45.078 1.261 2.709-2.287 6.719-0.678 10.402-0.945 10.34-0.74 24.05-1.45 34.68-0.31z"/>
	<path d="m188.52 109.7c-6.92 1.942-15.812 0.289-23.643 0.315 1.73-0.694 7.885-0.135 11.348-0.315h12.29z"/>
	<path d="m106.56 111.91c13.252-1.472 29.801-1.144 43.502-0.316 0.486 0.167 0.02 0.33-0.314 0.316-10.43 0.563-22.064-1.219-32.154-0.316-3.93 0.35-7.78 2.27-11.04 0.32z"/>
	<path d="m54.542 112.54c8.456-0.05 15.994 0.819 24.588 0.63-4.537 1.164-11.166 0.582-17.022 0.315-2.642-0.12-6.606 0.81-7.566-0.94z"/>
	<path d="m188.83 112.85c-5.479 1.258-17.488 0.616-22.695 0 6.96-0.61 15.68-0.38 22.69 0z"/>
	<path d="m117.28 113.48c8.672-0.162 19.887-0.133 29 0.315-9.28 1.07-19.94 0.59-29-0.32z"/>
	<path d="m107.5 114.43c4.842-0.951 10.08 0.427 15.447 0-0.859 1.349-3.467 0.948-5.359 1.261-0.094-0.207 0.764-0.477 0.945-0.315-1.48-1.32-9.27 0.72-11.04-0.95z"/>
	<path d="m188.52 115.38c-6.58 1.521-15.434 0.177-22.697 0.315 6.54-1.45 15.52-0.31 22.7-0.32z"/>
	<path d="m55.173 116.01c6.221-1.522 18.536-0.038 24.588 0.315-7.977 0.61-16.754 0.18-24.588-0.31z"/>
	<path d="m151.95 116.64c-9.281 1.752-22.783-0.719-31.207 1.892-1.852-1.028-5.084-0.805-8.512-0.946-1.359-0.056-3.52 0.658-3.783-0.946 14.28 1.15 29.17-1.16 43.5 0.01z"/>
	<path d="m80.708 118.84c-3.206 1.344-7.679 0.497-11.664 0.315-4.547-0.206-8.958 0.22-12.609 0-0.167-0.253-0.329-0.511-0.315-0.945 7.428-0.28 16.462 0.55 24.588 0.62z"/>
	<path d="m188.52 118.21c-6.559 1.994-15.578 0.344-23.014 0.315 5.53-1.51 15.19 0.03 23.01-0.31z"/>
	<path d="m109.39 119.47c11.455-0.843 23.504 0.454 35.621 0-1.125 0.879-2.973 0.864-4.414 0.946-9.391 0.533-20.859-0.279-30.262-0.315-0.23-0.29-0.58-0.47-0.95-0.63z"/>
	<path d="m164.24 121.05c6.73-0.319 15.334 0.217 23.012 0-6.49 1.23-16.42 0.75-23.01 0z"/>
	<path d="m80.708 121.68c-2.001 0.975-4.437 0.741-6.936 0.631-5.294-0.233-11.13 0.175-15.446-0.316-0.366 0.052-0.561-0.069-0.631-0.315-0.051-0.366 0.07-0.561 0.315-0.63 7.913-0.14 15.019 0.53 22.698 0.63z"/>
	<path d="m110.34 121.68c4.178-0.604 9.5 0.375 14.5 0-4.24 1.1-10.43 1.19-14.5 0z"/>
	<path d="m46.662 122c1.754 0.663 2.034 2.8 3.783 3.468 0.049 0.784-0.496 0.976-0.631 1.575-0.754-0.189-1.438-0.452-2.521-0.314-0.315-1.48-0.781-2.8-0.631-4.73z"/>
	<path d="m129.88 122.63c4.414-0.734 10.191-0.106 15.131-0.315-3.79 1.26-10.8 0.58-15.13 0.31z"/>
	<path d="m58.957 124.52c1.012-1.186 2.966-0.609 4.412-0.63 5.422-0.079 11.343 0.499 17.023 0.63 0.562-0.088 0.646 0.298 0.315 0.315-7.222 0.58-14.397-0.16-21.75-0.32z"/>
	<path d="m111.28 124.2c3.084-0.979 6.594 0.339 10.088 0-2.41 1.44-7.6 1.13-10.09 0z"/>
	<path d="m164.56 124.2c7.012-0.6 15.973-0.422 23.014 0-6.76 1.36-15.99 0.41-23.01 0z"/>
	<path d="m133.98 125.15c3.859-0.705 9.299-0.266 13.238 0 0.564-0.089 0.648 0.297 0.316 0.315-4.46-0.07-9.76 1.04-13.56-0.31z"/>
	<path d="m112.55 126.41c2.65 0.185 6.061-0.386 8.195 0.315-1.68 1.11-7.05 1.7-8.19-0.31z"/>
	<path d="m187.26 127.04c-6.953 1.215-15.174 0.092-22.697 0 5.49-1.15 15.9-0.57 22.7 0z"/>
	<path d="m60.217 127.04c6.528-0.959 13.642 0.229 20.49 0-5.797 1.25-14.574 0.67-20.49 0z"/>
	<path d="m144.07 127.35c-0.381 0.747-2.102 0.881-3.15 0.945-1.674 0.104-4.053-0.07-4.73-0.945 2.33-0.64 4.9 0.33 7.88-0.01z"/>
	<path d="m61.163 129.24c6.249-0.363 13.825 0.676 20.806 0.631-1.958 1.291-4.854 0.453-7.881 0.316-4.869-0.22-10.45 0.78-12.925-0.95z"/>
	<path d="m112.86 128.93c5.35-0.096 10.459 0.049 15.447 0.314-2.625 1.352-7.721 0.463-11.35 0.316-1.58-0.06-3.65 0.84-4.1-0.63z"/>
	<path d="m187.26 130.19c-8.324 0.863-17.426-0.229-25.848-0.316-0.564 0.088-0.648-0.299-0.316-0.314 2.756-0.188 6.273 0.389 8.512-0.316 5.62 0.59 12.3 0.11 17.66 0.95z"/>
	<path d="m129.88 131.77c-4.305 1.621-10.309-0.084-15.447 0.316-0.562 0.088-0.646-0.299-0.314-0.316 4.85-0.84 10.74-0.04 15.76 0z"/>
	<path d="m62.74 131.77c6.266-0.066 12.062 0.338 17.968 0.631 0.779-0.039 0.536 0.387 0 0.316h-1.577c-4.468 0.047-11.252 0.934-15.445 0-0.418-0.1-1.011 0.11-0.946-0.95z"/>
	<path d="m186.63 132.71c-2.186 1.123-5.043 0.631-7.566 0.631-7.256 0-15.002-0.48-22.383-0.316 1.43-1.201 3.678-0.553 5.359-0.631 7.72-0.35 16.32 0.38 24.59 0.32z"/>
	<path d="m130.2 134.29c-2.27 1.016-6.326 0.787-9.771 0.629-1.891-0.084-3.635-0.582-5.359-0.314-0.059-0.268 0.123-0.297 0.314-0.314 4.63-0.9 9.95 0.08 14.82-0.01z"/>
	<path d="m64.315 134.92c5.718-0.672 13.294-0.475 18.283 0.631-3.396 0.877-8.544-0.477-12.608-0.314-2.25 0.08-4.094 1.1-5.675-0.32z"/>
	<path d="m187.57 136.18c-10.182 0.408-21.598-0.678-32.785-0.314 10.09-1.7 22.78-0.83 32.79 0.31z"/>
	<path d="m116.64 136.81c5.865-0.611 12.861 0.377 19.543 0 0.564-0.09 0.648 0.299 0.316 0.314-2.473-0.018-5.273 0.498-8.195 0.631-4.16 0.2-8.66 0.49-11.66-0.94z"/>
	<path d="m66.207 137.44c5.371-0.744 12.189-0.211 17.338 0.316-4.146 1.316-10.508-1.004-15.131 0.631-0.97-0.08-1.418-0.69-2.207-0.95z"/>
	<path d="m152.58 138.07c11.721-0.164 22.604 0.512 34.045 0.629-9.293 1.322-19.85 0.215-30.264 0-1.11-0.02-2.93 0.58-3.78-0.63z"/>
	<path d="m119.8 139.02c7.361-0.953 15.125 0.426 23.012 0-6.8 1.68-15.64 0.45-23.01 0z"/>
	<path d="m84.175 140.28c-4.759 0.66-11.262 0.336-16.077 0-0.058-0.268 0.122-0.297 0.315-0.314 4.95-0.81 11.032-0.15 15.762 0.31z"/>
	<path d="m143.44 141.22c-6.4 2-14.4-0.111-22.066 0.316 6.54-1.54 14.49 0.23 22.07-0.32z"/>
	<path d="m185.05 141.54c-0.783 1.199-2.574 0.607-3.781 0.631-6.492 0.119-13.961 0.102-20.807-0.316-1.887-0.115-11.045-1.178-5.674-0.945 9.28 0.41 21.05 0.42 30.26 0.64z"/>
	<path d="m85.121 142.8c-4.615 0.83-10.354 0.057-15.131 0 4.182-1.83 10.405-0.39 15.131 0z"/>
	<path d="m123.89 144.06c4.637-1.492 11.193 0.01 16.393 0 0.779-0.041 0.535 0.387 0 0.314-5.4 0.82-10.8-0.34-16.39-0.31z"/>
	<path d="m151.32 144.38c9.555-0.291 24.047-0.682 34.045 0.316 0.549 0.055 0.656 0.188 0.314 0.314-11.47 0.79-22.96-0.37-34.35-0.63z"/>
	<path d="m85.751 145.01c-2.285 1.332-6.191 0.486-9.457 0.314-1.617-0.084-3.807 0.598-4.729-0.629 4.751-0.99 9.122 0.63 14.186 0.32z"/>
	<path d="m135.24 145.95c-1.277 1.723-5.828-0.207-7.25 0.629-0.07-1.88 4.64-0.31 7.25-0.63z"/>
	<path d="m185.36 147.21c-9.596 1.441-21.969 0.369-31.838 0h-4.729c-1.004-0.434 1.113-0.312 1.576-0.314h2.207c11.2-0.22 21.31 0.21 32.78 0.31z"/>
	<path d="m86.697 147.84c-2.817 0.986-9.854 0.914-12.609 0.314-0.346-0.074-1.131-0.562 0-0.631 3.697-0.21 8.683 0.19 12.609 0.32z"/>
	<path d="m146.59 149.42c11.893-0.543 24.691 0.736 37.512 0.314-2.354 1.24-5.227 0.52-7.881 0.631-9.18 0.39-20.15-0.12-29.63-0.94z"/>
	<path d="m87.327 151c-3.469 0.734-8.3 0.105-12.294 0.314 2.642-1.94 8.973-0.7 12.294-0.31z"/>
	<path d="m143.75 152.26c12.199-0.848 25.482-0.053 37.514 0.316 0.562-0.09 0.646 0.297 0.314 0.314-12.531 0.131-24.682-0.117-36.883-0.314-0.04-0.38-0.57-0.27-0.94-0.32z"/>
	<path d="m88.273 153.52c-2.613 1.053-7.316 0.654-10.402 0.314 2.63-1.65 6.832-0.36 10.402-0.31z"/>
	<path d="m139.66 155.1c13.512-0.271 29.232-0.021 42.871 0.631-14.03 0.99-29.22 0.46-42.87-0.63z"/>
	<path d="m89.534 156.04c-2.4 1.508-7.512 0.98-10.403 0.316 2.608-1.66 6.91 0.15 10.403-0.32z"/>
	<path d="m181.58 158.56c-3.369 1.203-7.201 0.545-11.033 0.314-10.844-0.652-23.721-0.012-34.99-0.631-0.537 0.115-0.596-0.246-0.631-0.631 14.34 0.27 31.59 0.36 46.65 0.95z"/>
	<path d="m89.849 158.56c-0.664 1.066-3.871 1.178-6.305 0.945-1.066-0.104-2.76-0.107-2.837-0.945 2.976-1 6.423 0.75 9.142 0z"/>
	<path d="m133.35 160.77c13.861-1.027 31 0.543 46.023 0.631 0.564-0.09 0.648 0.297 0.316 0.314-15.98 0.23-31.18-0.34-46.34-0.94z"/>
	<path d="m82.598 160.77c2.192 0.75 5.94-0.055 8.196 0.631-1.787 0.67-7.384 1.55-8.196-0.63z"/>
	<path d="m180.64 164.24c-17.17 1.564-36.246-0.283-53.275-0.947 0.111-0.361 0.557-0.799 0.631-0.314 17.83 0.34 34.36 0.93 52.65 1.26z"/>
	<path d="m91.425 164.24c-1.605 1.398-4.832 0.873-6.621 0 1.656-1.19 4.358-0.05 6.621 0z"/>
	<path d="m179.69 167.7c-16.455 0.402-35.977-0.523-53.59-0.945 13.623-0.564 30.52 0 45.078 0 2.93 0 5.84 0.36 8.51 0.94z"/>
	<path d="m86.697 167.07c2.163 0.148 5.064-0.441 6.305 0.631-1.401 0.35-5.847 1.02-6.305-0.63z"/>
	<path d="m122.63 169.28c8.295-0.576 17.744-0.395 27.111 0 9.393 0.396 18.934 0.098 27.424 0.945 0.549 0.055 0.658 0.188 0.316 0.314-18.57 0.83-36.61-0.77-54.85-1.25z"/>
	<path d="m96.785 169.6c-1.293 1.693-3.744 0.273-6.306 0.631 0.952-2.01 4.13-0.3 6.306-0.63z"/>
	<path d="m171.49 172.12c-5.635 2.721-16.178-1.312-21.436 1.891 5.107 1.512 13.289-0.051 18.914 0.945-7.174 1.158-15.688-0.596-21.752 1.262 5.318 1.617 12.664-0.217 18.283 0.631-6.096 1.572-15.615-0.277-21.436 1.574 6.127 1.021 13.787 0.506 20.807 0.633-0.324 0.92-1.635 0.871-2.207 0.945-6.598 0.838-15.014-1.16-21.75 0 10.387 2.291 23.83-0.344 34.674 1.26 1.162 23.113 0.18 48.367 1.262 71.559-30.211-0.156-62.988-0.48-94.57-0.316-1.066-22.891-0.484-47.43-0.63-71.242 7.655-2.049 17.632 0.172 26.165-0.945-3.371-2.094-6.539-4.391-10.088-6.305 0.826-1.17 3.576-0.416 5.359-0.631-0.045 0.902-1.316 0.576-2.207 0.631 5.873 2.965 17.824 1.172 27.74 1.891 4.998 0.363 12.393 0.928 17.023 0-6.355-1.564-13.793-0.938-21.121-1.26-5.814-0.256-11.609-0.662-17.023-0.947-0.562 0.09-0.646-0.297-0.314-0.314 14.02-0.656 29.018 1.977 41.295 0-7.871-1.34-16.867-0.879-25.533-1.26-0.996-0.045-7.021 0.488-9.143-0.316-0.143-0.053 3.311-0.602 3.783-0.631 6.527-0.387 14.57 0.277 22.381 0.631 10.18 0.45 21.28 0.23 31.54 0.31zm-66.51 4.73c6.418 1.902 14.088 0.883 22.381 1.26 6.285 0.285 11.926 1.783 14.816-0.631-12.46 0.19-25.64-2-37.2-0.63zm6.3 3.46c9.002-0.666 18.578 2.145 25.85-0.631-8.807-0.65-18.061-0.854-27.426-0.945-0.18 1.23 1.3 0.8 1.58 1.57zm44.14 1.58c-6.445 0-12.691-0.77-18.6-0.316-3.795 0.293-7.428 1.656-11.033 1.893-5.738 0.377-8.9-1.65-13.238-2.207-10.156-1.301-19.475 1.746-29.948 0.314-0.61 20.357 0.903 43 0 62.418-0.108 2.352-0.884 6.201 1.892 7.25 0.581-21.717 0.443-45.406 0-67.145 21.361-0.328 43.492 0.314 63.992 0.314 7.018 0 14.094 0.02 20.805 0.945h-39.402c-0.568 21.439-0.549 46.682 0.314 66.516 13.457-0.705 27.723 0.408 41.926 0-0.305-21.447-0.68-44.506 0-65.885 0.814 18.395 0.631 39.281 0.631 58.318 0 2.344-0.93 5.939 1.576 7.25 1.174-22.703 0.49-47.076-0.314-69.666-6.41 0.01-12.6 0.01-18.62 0.01zm-26.48-0.32c-3.912 0.025-8.582-0.871-12.293 0 3.87 0.37 8.91 1.89 12.29 0zm-42.874 4.42c0.117 22.277-0.545 43.562 0.315 65.254 14.396-0.211 27.833 0.537 42.241 0.314 0.02-22.191 0.08-44.422-0.314-66.199-13.518-0.459-27.656-0.295-41.611-0.314-0.399 0.13-0.647 0.41-0.633 0.95z"/>
	<path d="m99.621 171.8c-1.197 1.141-5.561 0.418-5.988 0 1.415-0.57 4.546-0.42 5.988 0z"/>
	<path d="m103.4 210.58c-3.312-0.365-4.734-5.352-7.564-7.25 3.337 0.34 4.624 5.46 7.564 7.25z"/>
	<path d="m99.621 209c1.242 0.756 2.434 1.561 2.838 3.152-1.17-0.83-2.574-1.42-2.839-3.15z"/>
	<path d="m150.06 218.77c1.229 8.543 0.379 19.166 0.631 28.686-6.158-0.146-13.039 0.43-18.283-0.631v-21.436c0-2.115-0.518-4.605 0.631-6.305 5.08-0.68 11.42-0.13 17.02-0.31zm-5.36 1.89c0.115 1.262 2.717 1.682 1.576 3.152-1.451-0.545-1.543-2.449-3.152-2.836 0.316 2 5.121 3.91 4.729 6.619-2.732-1.68-4.176-6.33-7.25-6.619 1.025 1.811 3.281 2.391 3.783 4.729-2.445-0.711-3.326-4.658-5.674-4.414 2.541 2.922 5.695 5.232 7.564 8.826-3.645-2.135-5.977-7.262-9.141-8.826 2.857 4.076 6.766 7.104 9.457 11.348-1.404-0.246-3.49-2.924-3.469-2.521 0.828 1.273 1.918 2.287 2.523 3.783-2.643-2.117-5.016-5.307-7.252-7.566-0.709-0.717-1.309-2.268-2.521-1.891 3.275 3.24 7.121 7.588 9.143 11.033-3.738-2.674-6.424-8.076-9.773-10.088 3.117 4.449 8.084 8.729 10.404 12.924-4.492-3.074-7.023-8.109-11.033-11.662-0.318 1.346 1.393 1.943 2.205 2.836 2.758 3.029 5.814 6.748 7.566 9.457-3.592-2.4-5.994-7.666-9.457-9.141 2.135 3.119 6.197 5.99 7.25 9.141-2.693-1.824-4.793-5.922-7.25-6.936 2.305 3.791 6.223 5.969 8.195 10.088-3.4-2.09-5.293-7.469-8.826-8.195 3.4 4.27 7.602 7.74 10.402 12.609h4.729c0.852-8.338-0.064-17.283 0-25.85-0.523-0.527-1.85-0.25-2.836-0.314-0.982 0.398 1.838 1.264 0.629 1.891-1.73 0.38-1.09-1.63-2.51-1.58zm-3.47 7.57c0.732 0.213 0.844 1.047 1.576 1.26-0.391-0.658-0.918-1.186-1.576-1.576-0.473-1.578-3.463-3.82-3.467-3.783 0.97 1.55 2.74 2.31 3.47 4.1zm-0.63 16.39c-2.107-2.096-3.539-4.865-5.988-6.619 0.619 2.531 3.4 2.904 3.781 5.674-1.936-0.691-2.047-3.207-4.098-3.783 0.301 2.6-0.693 4.551 0 6.621 3.049-0.209 6.934 0.418 9.457-0.314-2.893-3.625-5.572-7.459-9.141-10.404 0.97 3.75 6.04 5.09 5.99 8.82z"/>
	<path d="m156.68 241.15c1.406 0.381 1.924 1.65 2.523 2.838-1.41-0.38-1.92-1.65-2.52-2.84z"/>
	<path d="m135.24 242.1c1.123-0.072 1.648 0.453 1.576 1.576-1.16 0.11-1.32-0.79-1.58-1.58z"/>
	<path d="m178.43 255.34c-3.885 1.215-7.922 0.49-11.979 0.631-27.67 0.957-57.674-0.672-86.059-0.631-0.367 0.051-0.561-0.07-0.631-0.314-0.051-0.367 0.07-0.562 0.314-0.631 32.506 0.59 66.276-0.08 98.356 0.94z"/>
	<path d="m180 257.55c-0.047 0.688-0.795 0.676-1.576 0.629 1.869 1.527 1.27 6.004 0.945 8.828-1.191 0.27-1.115-1.412-0.629-1.893-0.695-0.162-1.74 1.588-1.893 0-0.738 0.104-0.307 1.375-0.945 1.576-1.586-1.332 0.373-4.322-0.945-5.988-1.264 0.943-0.1 4.314-0.945 5.674-1.85-0.568-0.279-4.557-1.262-5.99-1.002 1.311 0.697 5.322-1.576 5.359-0.406-1.266 0.242-3.303 0-5.359-2.355 0.863 0.418 5.066-1.576 5.99-0.84-1.365 0.172-4.584-0.631-5.99-1.408 0.904-0.004 4.619-0.945 5.99-1.934-0.482-0.252-4.584-1.262-5.99-1.828 0.955 0.674 4.547-0.945 5.359-2.156-0.748 0.293-4.279-1.262-5.359-0.953 1.359 0.451 5.074-0.945 5.99-1.543-0.768 0.111-4.734-0.945-5.99-1.572 0.529 0.104 4.307-0.945 5.359-1.738-0.363-0.631-3.572-0.945-5.359-2.594 0.223 0.266 4.189-1.576 5.359-1.574-0.529 0.102-4.305-0.945-5.359-1.695 1.111 0.514 4.23-0.947 5.359-2.117-0.588 0.248-3.775-0.945-5.359-1.805 0.998 0.766 4.482-1.262 5.045-1.383-0.404-0.273-3.299-0.629-4.729-1.619 0.588 0.281 4.693-1.262 5.357-1.062-1.039-0.482-3.721-0.629-5.674-1.646 0.562-0.684 3.732-0.947 5.674-2.037-0.273-0.227-4.396-1.26-5.674-1.561 0.752 0.252 4.877-1.262 5.674-1.703-1.281 0.605-4.619-0.945-5.988-1.496 0.711 0.051 4.465-0.947 5.674-1.812-0.475-0.654-3.85-0.629-5.359-1.605 0.496-0.705 3.5-0.945 5.359-2.547-0.467-0.16-3.959-1.262-5.674-2.5 0.562 0.924 5.111-1.576 5.674-0.73-1.266 0.131-4.123-0.631-5.359-1.709 0.936 0.463 4.246-0.945 5.045-1.951-0.695-0.25-3.535-0.945-5.045-1.512 0.801 0.064 4.688-0.947 5.99-2.195-0.922 0.166-4.549-0.945-6.305-2.23 0.779 0.215 4.334-0.945 5.988-2.275-0.832-0.234-4.033-1.262-5.988-1.51 0.801 0.066 4.688-0.945 5.988-1.984-0.885-0.283-3.865-0.629-5.988-2.186 0.734 0.299 4.248-0.947 5.988-2.734-0.484 0.162-4.686-1.574-5.988-1.559 1.219 0.479 4.078-0.633 5.674-2.082-0.717-0.123-4.221-0.945-5.674-1.803 1.014 1.119 5.039-1.26 5.674-0.924-1.283 0.439-4.854-0.945-5.674-1.518 1.125 0.482 3.832-0.631 5.359-1.869-0.232-0.551-3.654-0.945-5.359-1.656 0.99 0.279 4.062-0.631 5.359-2.244-0.068 0.189-4.814-1.576-5.359-1.043 1.602 0.541 4.324-0.631 5.359-2.453-0.455 0.543-4.529-1.262-5.359-0.891 1.104 0.246 4.238-0.629 5.359-2.316-0.697-0.258-3.861-1.262-5.674-1.523 0.893 0.076 4.908-0.945 6.303-2.283-0.834 0.34-4.723-1.262-5.988-0.938 1.27 0.426 4.84-0.945 5.674-1.385-0.926-0.117-4.506-0.945-5.988-0.898 1.203 0.252 4.453-0.631 5.674-1.605-0.604-1.168-3.246-1.262-5.359-1.602 1.039 0.512 3.859-0.629 5.359-2.129-0.184 0.115-4.74-1.576-5.359-1.535 0.898 0.959 4.48-1.262 5.043-0.654-1.131-0.164-3.408-0.316-5.043-2.227 0.645 0.045 4.193-0.945 5.674-2.678-0.43 0.143-4.41-1.576-5.674-0.938 1.27 0.428 4.84-0.945 5.674-1.234-1.076-0.375-4.248-0.629-6.305-1.725 0.588-0.646 3.977-0.947 5.99-1.955-0.355-1.037-3.586-1.26-5.674-1.496 0.711 0.051 4.463-0.945 5.674-2.27-0.744 0.475-4.596-1.262-5.674-1.504 1.004 1.059 5.037-1.262 5.674-0.67-1.328-0.152-3.84-0.314-5.674-2.094 0.217-0.146 4.477-1.262 5.674-1.559-0.648-0.742-3.672-0.945-5.674-2.199 0.705 0.152 4.137-0.945 5.674-1.57-0.74-1.104-3.521-1.262-5.674-1.494 0.711 0.053 4.463-0.945 5.674-1.686-0.52-0.67-3.744-0.945-5.674-1.92 0.391-0.518 4.105-0.945 5.988-2.148-0.268-0.086-4.748-1.262-5.988-0.674 1.428-0.092 4.111-0.631 5.674-2.44-0.479-0.057-3.893-1.261-5.674-0.599 1.502-0.225 3.977-0.63 5.674-2.59-0.414-0.16-4.098-1.262-5.674-1.599 1.043 0.607 3.953-0.945 5.043-1.429-0.674-0.109-4.094-0.945-5.359-1.783 0.537 0.115 2.988-0.945 4.414-1.787-0.297-1.104-2.582-0.947-4.098-0.412-0.744-2.449 0.137-2.521-0.947 28.512-1.449 58.955-0.09 87.951 0-28.623-1.744-60.324-0.41-89.842-1.26-0.168-0.254-0.328-0.512-0.316-0.945 0.281-0.195 0.564-0.383 0.632 0 32.666-0.56 66.926 0.07 99.246 0.95zm-1.57 5.67c-0.051-0.582 0.744-2.584 0-1.893 0.34 0.81-0.96 1.5 0 1.89z"/>
	<path d="m208.38 261.33c0.012 1.402-2.654 1.043-2.838 0 0.7-0.67 1.52 0.33 2.84 0z"/>
	<path d="m188.83 263.53h1.576c0.43 1.15-2.12 1.51-1.58 0z"/>
	<path d="m180.64 263.85c1.318-0.008 1.617 2.348 0.631 2.836-1.28 0.12-0.35-1.97-0.63-2.84z"/>
	<path d="m206.17 265.43c0.76-0.129 0.686 0.574 1.576 0.314 0.22 1.44-1.97 1.04-1.58-0.31z"/>
	<path d="m191.67 266.37c0.303 1.047-1.992 0.127-2.521 0 0.11-1.05 2.3-0.71 2.52 0z"/>
	<path d="m192.3 269.21c-0.23 0.074-2.791 0.457-2.838-0.629 0.88-0.35 2.67-0.58 2.84 0.63z"/>
	<path d="m104.98 270.78c-8.002 0.541-18.158 0.508-26.164 0 8.227-0.3 18.752-0.88 26.164 0z"/>
	<path d="m190.09 270.78h3.152v0.631c-0.95-0.3-3.19 0.68-3.15-0.63z"/>
	<path d="m195.45 272.68c-1.016 0.562-2.861 0.293-4.1 0.631 0.18-1.31 3.14-1.12 4.1-0.63z"/>
	<path d="m116.64 273.62c-15.346 0.215-29.729-0.535-45.078-0.314 6.935-0.736 15.236-0.105 22.695-0.316h17.34c1.53 0.36 4.54-0.76 5.04 0.63z"/>
	<path d="m47.923 274.57c-2.322 0.951-5.035-0.424-7.881 0 1.612-1.35 6.094-0.54 7.881 0z"/>
	<path d="m197.03 274.25c-0.43 0.938-2.178 0.553-3.469 0.631 0.37-0.93 2.52-1.27 3.47-0.63z"/>
	<path d="m198.6 274.57c2.953-0.637 7.816-0.461 10.404 0.316-3.02 0.71-7.66 0.31-10.4-0.32z"/>
	<path d="m64 275.52c24.199-0.768 49.148 0.447 73.766 0.314 0.564-0.074 0.645 0.279 0.314 0.314-11.107 1.205-24.154 0.133-36.883 0-6.193-0.064-12.485 0.219-18.599 0-6.437-0.23-13.244-0.22-18.601-0.62z"/>
	<path d="m46.031 276.46c-1.285 0.314-4.821 1.518-5.359-0.316 2.302 0.27 3.938-0.75 5.359 0.32z"/>
	<path d="m151 278.66c-13.064 1.328-27.018 0.316-40.98 0.316-13.822 0-27.911 0.182-41.295-0.316h-0.63c-0.052-0.365 0.069-0.561 0.315-0.629 27.959-0.21 55.07 0.42 82.59 0.63z"/>
	<path d="m209.64 278.35c-2.771 1.863-10.568 0.312-13.24 0 4.14-0.96 8.63 0.39 13.24 0z"/>
	<path d="m46.662 278.66c-0.245 0.912-2.14 1.404-2.206 0 0.681-0.71 1.074 0.27 2.206 0z"/>
	<path d="m85.436 281.19c0.14-0.281 0.276-0.564 0.63-0.631 26.182 0.256 54.438 0.711 81.645 0.945 0.566-0.074 0.645 0.279 0.316 0.314-12.289 1.369-26.387 0-40.666 0-6.77 0-13.662-0.314-20.488-0.314-7.39 0-15.324 0.26-21.434-0.31z"/>
	<path d="m171.18 284.34c-21.092 0.76-41.773-0.436-63.992 0-0.051-0.367 0.068-0.562 0.314-0.631 20.69-0.04 45.28 0 63.68 0.63z"/>
	<path d="m60.533 284.97c-1.431-0.357-4.326 0.752-4.729-0.631 1.406-0.29 3.922-0.54 4.729 0.63z"/>
	<path d="m209.64 285.29c-2.205 0.918-7.324 0.814-10.402 0-3.576-0.945 1.826-0.359 2.836-0.314 3.36 0.13 5.02-0.18 7.56 0.31z"/>
	<path d="m127.36 286.86c13.213-1.348 33.867-0.4 49.492 0 0.562-0.088 0.646 0.297 0.314 0.314-16.91 0.21-33.12-0.27-49.8-0.31z"/>
	<path d="m60.533 289.07c-1.133 1.879-3.896 0.223-6.306 0.629 0.976-1.34 4.317-0.31 6.306-0.63z"/>
	<path d="m180.95 289.38c-10.305 0.639-22.432 0.365-32.783 0 3.287-0.705 11.045-0.127 16.076-0.314 5.62 0.05 11.53-0.19 16.7 0.31z"/>
	<path d="m53.912 291.27c1.707 0.607 4.426 0.199 6.621 0.316-0.966 1.23-6.151 1.69-6.621-0.32z"/>
	<path d="m184.1 291.59c-3.248 1.445-8.711 0.258-12.609 0.314-0.057-0.268 0.123-0.297 0.316-0.314 3.66-0.74 7.93 0.41 12.29 0z"/>
	<path d="m53.282 293.8c1.472 0.783 6.079-1.201 6.936 0.945-1.575-0.88-5.972 1.2-6.936-0.94z"/>
	<path d="m204.59 294.74c2.426-0.221 4.098 0.314 6.305 0.314-1.07 1.01-5.63 1.07-6.31-0.31z"/>
	<path d="m67.783 296.63c22.845-0.889 49.682 0.045 73.449 0.316-22.84 0.88-49.691-0.03-73.447-0.32z"/>
	<path d="m59.902 299.47c-2.586 0.064-5.05 0.006-7.25-0.316 0.48-0.982 2.672-0.725 4.098-0.629 1.144 0.08 3.06 0.11 3.152 0.95z"/>
	<path d="m62.74 301.05c30.83 0.586 63.174-0.338 92.992 1.26-29.834 0.061-62.664-0.445-92.363-0.629-0.534 0.11-0.592-0.25-0.627-0.63z"/>
	<path d="m52.652 303.88c1.816-0.549 5.74-0.49 7.565 0-2.293 0.42-5.62 1.04-7.565 0z"/>
	<path d="m73.142 304.2c29.654-0.971 59.793 0.311 89.211 0.631 0.562-0.09 0.646 0.297 0.314 0.314-29.945 0.207-58.75-0.723-88.58-0.631-0.043-0.36-0.568-0.26-0.938-0.31z"/>
	<path d="m52.336 306.09c2.691 0.146 6.005-0.33 8.196 0.316-1.921 0.7-6.792 1.29-8.196-0.32z"/>
	<path d="m173.7 307.98c-27.961-0.408-56.445-0.295-84.167-0.945 0.14-0.279 0.276-0.562 0.63-0.629 26.162 0.293 53.029 0.529 79.123 0.945 1.39 0.01 3.29-0.57 4.41 0.62z"/>
	<path d="m52.652 308.61h7.565c-0.328 1.283-2.784 1-4.413 0.945-1.347-0.05-3.377 0-3.152-0.95z"/>
	<path d="m130.2 309.56c8.631-0.855 18.293-0.012 27.109 0-7.89 1.19-19.14 0.78-27.11 0z"/>
	<path d="m213.1 313.34c-2.293-0.234-7.291 0.57-7.566-0.633 1.051-0.465 2.65-0.402 4.1-0.314 1.27 0.07 3.16 0.07 3.47 0.94z"/>
	<path d="m60.533 313.97c0.207 1.363-2.209 0.104-2.522 0.945-1.519-0.582-3.989-0.213-5.989-0.314 1.919-1.75 5.491-0.48 8.511-0.64z"/>
	<path d="m212.47 314.6c-0.871-0.283-2.959 0.648-2.836-0.631 0.88-0.35 2.67-0.57 2.84 0.63z"/>
	<path d="m52.021 316.81c2.209-0.732 5.777-0.107 8.512-0.316-2.125 1.24-6.092 1-8.512 0.32z"/>
	<path d="m38.15 336.98c0.537-0.115 0.595 0.246 0.63 0.631-1.844 3.936-3.064 8.494-5.359 11.979 0.362-4.15 3.486-8.28 4.729-12.61z"/>
	<path d="m156.99 35.622c1.67-0.303 2.139 0.594 2.521 1.576 1.484-0.328 1.586 0.727 2.207 1.261-0.945 1.026-2.023-0.479-2.207-1.261-1.17-0.193-2.13-0.597-2.52-1.576z"/>
	<path d="m99.937 95.516c2.223-3.482 5.697-0.417 9.141 0 8.072 0.979 17.684-5.184 23.959-0.63-5.879-2.089-14.781 1.725-22.697 1.577-3.75-0.072-6.74-1.735-10.403-0.947z"/>
	<path d="m89.849 187.88c5.76 0.229 12.545-0.568 17.338 0.629 0.115 9.447-0.287 19.41 0.314 28.371-5.953 0.596-13.164 0.039-18.283 0-1.092-8.82-0.094-19.463-0.314-28.055 0.177-0.45 0.492-0.76 0.946-0.94zm11.981 2.2c0.121 2.084 2.438 1.977 2.521 4.098-2.064-0.771-2.578-3.094-4.412-4.098 0.322 1.885 2.254 2.16 2.521 4.098-2.234-0.291-2.545-4.174-4.729-3.467 2.174 2.346 5.293 5.424 6.305 7.881-3.396-1.857-4.938-7.252-8.512-7.881 2.814 2.859 5.512 5.836 7.881 9.143-4.098-2.207-5.539-7.07-9.457-9.457 2.328 4.396 6.48 6.969 8.826 11.348-4.193-2.953-6.979-8.992-11.033-11.033 3.295 4.271 7.184 7.947 10.402 12.295-4.508-2.953-7.01-7.91-11.032-11.35 2.06 4.98 6.952 7.129 9.142 11.979-3.291-2.697-5.512-6.467-8.826-9.141 2.576 5.41 8.799 8.852 11.033 13.555-4.551-3.227-7.084-8.467-11.664-11.664-1.362 6.891 5.84 7.773 7.25 12.926-2.734-1.576-4.373-5.922-6.935-6.621 2.13 4.176 6.278 6.33 8.511 10.404-3.469-1.787-5.469-6.719-8.511-7.881 2.013 3.451 6.864 5.744 7.565 9.455-1.225-0.82-0.393-0.461-0.945 0.316-1.697-2.402-5.379-2.818-6.62-5.674 0.45 0.074 0.532 0.518 0.946 0.629-0.059-0.885-0.549-1.342-1.577-1.26-0.204 2.832 0.276 4.977 0.315 7.564h15.762c-0.725-8.205-0.113-17.75-0.314-26.479h-2.207c-0.756 0.928 1.795 2.129 0.631 3.467-1.41-0.59-1.53-2.47-2.85-3.15zm-7.252 20.18c-0.662-0.1-1.002-2.117-1.893-0.945 1.145-0.39 1.014 2.1 1.893 0.94zm2.207 2.21c-0.475-0.086-1.328-1.354-1.576-0.629 0.578-0.02 1.066 1.61 1.576 0.63z"/>
	<path d="m125.16 188.19c1.305 2.979 0.334 6.285 0.314 9.771-0.035 6.531 1.051 13.646 0.314 19.861-5.1-0.785-11.119-0.65-17.021-0.631 0.211-9.881-0.537-18.799-0.316-28.688 4.74-1.31 11.37-0.34 16.72-0.31zm-3.47 8.52c-3.064-0.932-3.344-6.322-6.619-5.99 2.648 3.551 6.113 6.285 8.195 10.402-3.783-2.941-6.377-8.752-10.088-10.717 1.928 3.535 5.33 5.598 6.936 9.457-2.562-1.922-4.293-5.482-6.305-7.566-0.602-0.623-1.561-1.846-2.521-1.576 3.1 4.992 7.678 8.504 10.719 13.555-4.258-3.309-7.541-9.271-11.35-11.979 2.5 4.541 6.926 7.154 9.143 11.979-3.406-2.584-5.949-7.711-9.143-9.457 3.6 5.438 8.863 9.211 11.979 15.131-4.316-4.088-7.418-9.393-11.979-13.238 2.082 4.854 6.688 7.184 8.828 11.979-3.264-2.518-5.666-7.574-8.828-9.143 2.172 3.188 5.232 5.486 6.936 9.143-2.783-1.945-4.004-5.451-6.936-7.25 1.633 4.146 6.297 6.941 7.566 10.402-2.918-1.918-4.926-6.422-7.566-7.566 2.041 3.32 5.965 6.434 7.25 9.457-2.902-2.035-4.443-5.434-7.25-7.564 1.252 4.107 5.287 5.43 6.936 9.141-2.988-1.215-4.391-5.695-6.936-6.305 1.164 1.885 3.512 2.584 3.783 5.359-1.838-0.729-2.328-4.332-4.414-3.783-0.303 1.881 1.932 1.223 1.893 2.838-0.891 0.26-0.816-0.445-1.576-0.314v3.15h14.816c-0.609-8.322-0.197-17.666-0.316-26.479-1.25 0.117-3.021-0.289-3.783 0.314-0.07 1.373 2.277 1.514 1.262 2.838-1.355-0.432-1.293-2.281-2.836-2.521 0.424 2.305 3 2.463 3.15 5.043-2.191-1.066-3.141-5.053-5.357-5.043 1.17 2.43 3.43 3.74 4.43 6.32z"/>
	<path d="m150.38 188.51c0.584 9.189 0.211 19.332 0.314 29.002-6.104-0.201-13.127 0.518-18.283-0.631 1.045-8.857-1.346-20.523 0.945-28.686 5.63 0.14 11.87-0.31 17.02 0.32zm-8.2 8.83c1.75 2.1 4.014 3.908 5.043 6.619-2.41-2.633-5.154-4.934-6.934-8.197-2.436-0.824-2.73-5.461-5.674-4.729 3.48 4.297 7.588 7.963 10.402 12.926-4.016-3.236-6.561-7.941-10.402-11.348 1.947 4.25 6.119 6.277 7.881 10.717-3.029-2.436-4.936-5.992-7.881-8.512 3.215 6.031 8.771 9.721 11.979 15.762-4.334-3.232-7.242-9.57-11.35-11.979 2.881 3.426 6.949 7.34 8.512 11.033-1.74-1.201-2.975-3.232-4.414-5.043-1.432-1.805-2.941-4.189-4.727-4.414 2.482 3.4 6.701 6.746 7.881 10.402-3.023-2.23-4.543-5.965-7.566-8.195 0.773 2.066 3.891 3.461 3.467 5.674-1.531-0.889-2.633-3.875-4.098-3.783 2.082 3.699 5.416 6.143 7.566 9.773-2.969-1.656-4.48-4.768-6.936-6.936 1.209 3.098 4.396 4.219 5.359 7.564-2.646-0.613-3.105-5.088-5.674-4.729 1.361 1.477 3.416 2.258 3.781 4.729-1.766-0.756-2.176-2.865-4.098-3.467 0.287 1.816 2.484 1.719 2.521 3.783-1.514 0.148-0.805-1.926-2.521-1.576v3.152c5.209-0.15 11.057 0.338 15.762-0.316-0.834-8.129-0.629-17.018-0.314-25.533-0.906-0.881-2.977-0.596-4.729-0.631-0.076 2.072 2.281 1.713 2.205 3.783-1.941-0.578-1.754-3.287-4.098-3.467 0.639 1.887 3.396 3.322 3.152 5.043-2.105-0.943-2.582-5.189-5.357-4.414 1.002 1.42 3.537 2.973 3.15 4.729-1.959-1.506-2.826-4.107-5.043-5.357 2.062 4.348 5.84 6.979 8.195 11.033-4.455-2.166-6.168-8.752-10.086-10.404 1.61 2.27 3.33 4.27 5.05 6.34z"/>
	<path d="m168.97 188.51c-0.543 9.395-0.322 19.561 0 29.002-5.844 0.168-11.35 0.566-16.707-0.314 0.34-9.754-1.297-20.162 0.631-28.688 4.86-0.46 11.24-0.52 16.08 0zm-3.47 15.45c-4.723-2.633-7.119-9.27-11.348-11.348 2.697 4.973 8.424 8.598 10.402 13.238-3.539-3.709-6.691-7.809-10.402-11.348 1.914 4.811 6.67 6.781 8.828 11.348-3.316-2.254-5.615-7.203-8.828-8.51 1.457 2.43 4.176 3.6 5.045 6.619-1.744-0.887-3.076-3.855-4.414-4.098 3.02 4.336 8.037 8.354 10.088 12.607-3.996-3.254-6.365-8.135-10.402-11.348 1.467 3.682 4.594 5.703 6.619 8.826-0.037 0.908-1.344 0.547-1.262 1.576 0.213 0.449 1.93 0.975 0.947 1.578-2.822-1.281-4.357-5.518-6.621-6.307 1.086 1.205 1.922 2.764 3.152 4.1 1.156 1.252 3.244 2.195 3.152 3.781-2.246-0.592-3.158-4.191-5.043-4.098 1.184 1.129 2.711 1.912 3.152 3.783-2.043-0.898-2.551-3.334-4.729-4.098-0.918 1.859 0.371 3.969 0 6.305h14.186c-0.582-8.246-0.215-17.439-0.316-26.164-1.061 0.199-2.928-0.406-3.467 0.314 0.613 0.604 2.324 1.229 1.576 2.207-1.686-0.311-1.121-2.873-3.467-2.521 0.395 2.441 3.234 2.439 3.467 5.043-1.949-1.307-2.684-3.832-4.729-5.043 0.697 3.086 3.674 3.891 4.412 6.936-3.152-0.947-3.574-6.301-6.934-5.99 1.557 1.389 3.961 3.6 4.098 5.359-2.141-1.957-3.229-4.967-5.99-6.305 1.5 4.49 6.656 7.004 7.881 10.717-3.822-2.586-5.951-8.549-9.771-10.088 3.17 4.7 7.22 8.53 10.7 12.93z"/>
	<path d="m106.87 218.77c1.283 8.383 0.342 18.992 0.629 28.371-5.686-0.629-12.154 0.367-18.598 0 0.101-8.02-0.076-18.391-0.316-27.111 0.711-0.145 1.011-1.289 1.892-1.576 4.137-1.34 12.142 0.83 16.392 0.32zm-2.2 6.62c-2.484-1.193-3.506-3.85-5.99-5.043 0.66 2.703 3.637 3.088 4.098 5.988-2.496-1.707-3.559-4.846-6.619-5.988 1.674 3.789 5.367 5.561 7.25 9.141-1.746-1.109-3.275-2.738-4.729-4.414-1.398-1.611-2.533-3.871-4.414-4.096 2.605 3.49 6.729 7.141 8.512 10.402-3.506-1.936-5.412-6.547-8.195-9.143-0.562-0.523-1.652-1.389-2.521-1.26 2.318 3.564 6.176 5.592 7.881 9.771-1.51-1.219-3.023-2.791-4.414-4.414-1.359-1.588-2.389-4.105-4.413-4.098 1.952 2.273 3.897 4.818 5.989 7.25 2.07 2.404 4.617 4.682 5.674 7.25-2.215-1.594-3.871-3.99-5.674-6.305-1.742-2.238-3.592-5.213-5.989-5.674 4.153 4.463 8.136 9.098 11.663 14.186-4.512-3.578-7.092-9.09-11.663-12.609 1.685 4.516 6.565 7.516 8.196 11.033-3.506-2.062-4.99-6.148-8.196-8.512 2.382 5.918 8.067 8.535 10.718 14.186-3.986-3.055-6.846-8.914-10.718-11.033 1.829 2.9 5.017 4.441 6.304 7.881-2.711-1.072-3.887-5.357-6.304-5.674 2.108 2.727 5.839 5.508 6.62 8.512-2.463-1.848-4.227-6.068-6.936-6.619 1.811 2.287 4.283 3.912 5.359 6.934-2.027-1.127-3.283-4.699-5.359-4.729 1.004 2.254 3.588 2.928 4.098 5.676-2.031-0.596-2.004-3.25-4.098-3.783 0.102 1.58 2.033 1.33 1.891 3.152-1.115 0.17-0.773-1.117-1.891-0.945-0.137 1.076-0.717 2.834 0 3.783h15.762c0.037-8.928-0.064-17.713 0-25.85-1.039-0.809-2.521 0.045-3.783 0-0.076 1.547 1.98 0.961 1.576 2.836-1.666-0.127-2.271-2.973-3.467-2.521 1.06 1.73 3.19 2.44 3.77 4.7z"/>
	<path d="m125.78 218.77c0.719 8.844 0.119 19.006 0.316 28.371-5.721 0.609-11.475 0.109-17.338 0 1.209-9.84-0.979-19.451 0.631-28.371 5-0.64 11.34-0.3 16.39 0zm-4.41 2.52c0.297 1.91 2.709 1.703 2.521 4.098-2.059-0.676-3.156-3.984-4.729-4.098 1.469 2.104 3.941 3.203 4.729 5.988-2.908-1.295-4.6-5.486-6.936-6.303 1.469 2.104 3.941 3.203 4.729 5.988-2.762-1.232-4.338-5.326-6.619-5.988 2.363 3.627 6.971 6.688 8.195 10.402-3.93-3.109-6.115-7.967-10.402-10.719 2.074 3.916 6.033 5.945 7.881 10.088-3.621-2.684-6.492-7.799-9.773-9.771 2.553 4.277 7.709 7.633 9.143 11.977-0.996 0.266-1.91-2.213-1.576-1.26 1.035 2.645 3.758 3.598 4.729 6.305-4.916-2.967-7.689-9.754-11.979-12.293 2.873 3.852 7.283 7.846 9.143 11.662-4.018-2.078-5.613-8.256-9.459-9.457 2.424 2.83 5.34 5.17 6.936 8.826-2.613-2.115-4.193-5.262-6.936-7.25 1.424 4.041 5.434 5.494 6.936 9.457-2.953-1.25-4.328-5.758-6.936-6.305 2.08 3.07 5.371 4.928 6.936 8.512-2.592-1.611-4.479-5.607-6.936-6.305 1.672 2.744 5.395 5.113 5.99 7.881-2.379-1.613-3.498-4.488-5.99-5.99 0.812 3.395 5.289 4.797 5.361 7.881-2.361-1.422-3.145-4.422-5.676-5.674-0.836 2.201 0.357 5.059-0.314 6.936 4.4 0.643 9.916 0.172 14.816 0.316-0.119-8.709 0.291-17.945-0.316-26.166h-2.836c-0.168 1.65 2.633 1.619 1.574 3.152-1.38 0.04-1.08-1.63-2.19-1.89z"/>
	<path d="m168.66 218.77c0.561 9.211 0.229 19.314 0.314 29-5.02-0.727-11.496 0.777-17.023-0.629 0.238-9.15-0.363-18.85 0-27.111 3.73-2.26 11.1-0.88 16.71-1.26zm-12.61 2.52c2.596 3.078 6.709 6.318 7.881 9.771-2.602-2.119-4.479-5.838-6.936-8.195-0.703-0.676-1.812-1.617-2.838-1.576 2.916 4.545 7.332 7.59 10.088 12.295-3.873-2.645-6.375-8.336-10.088-10.088 3.232 4.646 7.422 8.34 10.719 12.924-4.059-2.879-6.881-8.67-10.719-10.717 2.525 3.883 6.246 6.572 8.512 10.717-3.338-2.441-5.039-6.52-8.512-8.826 1.691 4.93 6.457 6.783 8.512 11.348-1.412-1.275-3.014-2.826-4.412-4.412-1.332-1.51-2.242-4.07-4.414-3.783 2.324 3.244 6.443 6.375 7.881 9.457-3.133-2.123-4.732-5.775-7.881-7.881 0.949 4.096 6.033 5.734 6.619 9.141-2.547-1.971-3.752-5.283-6.934-6.619-0.174 3.715 0.369 8.146-0.316 11.35 4.367 0.676 9.939 0.146 14.816 0.314-0.043-8.68 0.178-17.623-0.316-25.85h-4.727c0.223 1.773 2.521 1.471 2.52 3.467-1.555-0.545-2.143-2.059-3.467-2.836 0.998 2.889 4.092 3.684 5.045 6.619-2.949-1.467-4.506-6-7.566-6.305 1.895 1.68 3.828 3.318 5.043 5.674-0.596 0.072-0.693-0.354-1.26-0.314 0.436 1.561 2.461 1.531 2.521 3.467-3.53-2.55-6.15-7.7-9.76-9.14z"/>
	<path d="m155.1 237.68c1.443 0.77 4.201 2.945 4.729 5.676-1.88-1.59-3.18-3.75-4.73-5.68z"/>
	<path d="m179.06 46.654c3.693 17.343 8.699 32.698 15.762 47.601 3.461 7.303 6.957 14.37 9.771 22.066 2.83 7.739 4.885 16.073 6.936 24.903 2.047 8.811 3.469 18.09 3.469 28.371 0 26.42-2.58 49.789-4.1 75.656-0.289 4.941-1.766 10.25-1.26 14.502 0.297 2.502 2.193 4.975 2.521 7.25 0.592 4.104-0.148 8.342-0.316 12.293-0.326 7.781 1.039 15.266 1.893 22.697 0.4 3.5 0.701 7.352 1.576 10.717 0.4 1.543 1.463 2.885 1.891 4.414 0.717 2.561 0.926 5.092 1.576 7.566 1.758 6.682 4.57 13.83 5.99 21.436-4.959 2.637-10.668-0.721-14.502-2.207-0.674 2.037 1.439 3.457 0.947 6.305-11.357 1.627-18.055-3.969-24.904-7.881-34.338-1.119-73.107 1.266-109.07-0.314-5.211-0.229-10.434-1.354-14.5-0.314-2.322 0.59-4.723 2.537-7.252 3.781-2.521 1.242-5.107 2.23-7.88 3.152-5.564 1.848-11.516 4.289-17.968 2.207-0.378-2.9 1.199-3.846 1.576-5.99-4.149 0.305-8.686 2.736-11.979 0.316-0.248-2.459 1.763-4.369 2.837-6.305 3.317-5.977 6.751-12.549 9.772-19.23-6.477-16.037-12.717-36.58-11.034-59.893 0.094-1.299 0.787-3.092 0.631-4.1-0.327-2.107-2.61-2.098-2.207-5.043 0.153-1.635 2.809-0.764 3.467-1.891 1.462-6.629 2.746-13.438 10.718-13.557-0.51-46.785 1.152-93.004 13.556-129.56 0.881-2.598 2.071-5.044 2.206-7.25 0.285-4.666-1.883-8.953-2.206-13.87-1.175-17.826 4.161-33.699 11.979-45.709-5.104-1.915-10.996-2.994-17.654-3.782-6.344-0.759-13.342 0.319-19.238-1.899-5.746-2.163-9.83-8.231-14.816-11.664-2.376-1.636-7.477-2.995-7.25-5.989 0.262-3.458 9.443-4.416 12.609-5.043 5.313-1.054 10.089-1.939 14.501-2.837 11.215-2.284 19.407-6.407 28.37-7.567 2.225 1.043 4.301 0.64 6.62 1.261 6.834 1.83 13.467 7.537 22.067 6.935 3.82-0.267 6.662-2.464 9.771-3.467 16.742-5.403 38.492-1.369 49.492 5.674 1.945 1.247 3.098 2.934 5.043 3.152 3.824 0.431 6.439-2.283 9.143-4.098 3.385-2.273 6.629-4.907 11.979-4.413 4.596 0.425 8.764 3.411 13.871 5.359 8.844 3.373 18.412 6.634 28.686 9.457 4.666 1.282 12.676 2.745 13.24 5.674 0.691 3.598-4.342 5.314-5.99 7.565-1.092 1.492-1.494 3.673-2.838 5.359-1.258 1.58-3.453 3.663-5.357 5.359-1.771 1.575-4.537 3.96-6.305 4.414-3.711 0.95-7.973-0.772-12.295-1.261-4.44-0.504-8.74-0.263-13.54-0.316zm-119.16-44.447c-0.965 0.229-0.928-0.543-1.892-0.315-0.028 1.161 1.579 1.085 1.892 0.315zm-4.098 1.576c-0.14-0.912-0.665-1.437-1.577-1.577-0.634 0.728 0.368 1.73 1.577 1.577zm8.826 0c-1.42-0.061-2.775-1.836-4.098-0.946 0.587 0.893 2.811 1.8 4.098 0.946zm12.294 17.653c-1.987 0.299-1.938-3.095-3.782-1.891 1.445 0.446 2.047 1.735 2.207 3.467-1.639 0.149-1.623 1.95-3.154 2.207-0.752-0.303-0.373-2.686-1.575-1.576-0.964 0.583 1.39 0.473 0.946 1.576-1.289 2.378-5.295 2.676-5.99 4.729 0.283 1.906 2.701-1.034 2.838 0.63-1.348 1.592-3.806 3.41-6.621 2.522 0.576 2.361-2.698 0.874-3.152 2.207 0.813 1.048 2.252-0.223 3.468 0.63-0.112 1.359-1.746 1.196-1.261 3.152 2.66 0.116 5.646-1.563 6.936 0.631-1.074-0.233-0.52 1.162-1.262 1.261-0.832-2.371-6.207-1.846-6.934 0.315 1.826 0.169 4.604-0.612 4.728 1.261-0.103 2.944-4.512 1.583-7.251 1.891 0.408 0.878 1.982 1.132 3.153 1.261 1.736 0.192 3.458-1.249 3.468 0.63-2.246 1.194-6.738-1.337-8.197 0.945 0.789 1.628 5.004-0.169 6.305 0.946 1.291 0.344-0.043-1.934 1.576-1.261 1.037 3.36-5.878 2.085-8.51 1.892-1.774 5.162-4.441 9.43-4.729 16.077 3.739 0.357 8.949-0.754 11.662 0.631-3.742 0.32-8.607 0.603-12.293 0 0.135 1.816-0.359 3.004-0.631 4.413 4.645 0.084 9.551-0.094 13.24 0.946-4.017 1.516-10.825-1.63-13.24 1.261 4.131 1.017 10.27 0.029 13.872 1.576-2.68 0.098-6.486 0.053-9.773 0-1.557-0.025-3.658-0.85-4.413 0.63 3.251 2.108 10.99-0.272 14.187 1.892-4.973 0.411-10.486-1.307-14.187 0.63 3.393 2.176 11.396-0.258 14.815 1.892-4.096 1.028-10.991-1.784-14.5 0.63 4.225 1.687 11.069 0.737 16.393 1.26 0.84 0.083 2.422 0.047 2.837 0.946-5.425 0.283-11.43-0.427-16.394-0.315-1.232 0.027-3.494-0.866-3.466 0.945 7.202 1.625 17.336 0.317 24.588 1.892-4.487-0.163-9.551 0.215-14.187 0-3.701-0.173-7.67-1.29-10.087 0.945 7.331 1.916 18.681-0.187 25.849 1.892-7.121 0.302-13.787-0.62-20.49-0.315-1.77 0.08-3.678 0.071-5.043 0.945 8.713 1.795 20.872 0.145 29.317 2.207-6.92-0.611-15.676 0.012-22.697-0.315-2.354-0.109-4.605-0.981-6.304 0.63 9.479 1.806 21.041 0.813 30.578 1.892-7.77 0.587-17.06 0.356-24.902 0-1.877-0.085-4.492-1.121-5.675 0.315 0.871 2.627 4.626 1.577 7.25 1.577 5.448 0 10.659-0.14 15.446 0.315 2.462 0.234 5.774-0.04 7.881 0.946-10.301 0.455-20.221-1.496-29.631 0 2.463 2.417 6.848 0.944 10.717 1.261 5.967 0.488 14.707 0.362 19.229 1.26-8.088 1.173-18.066-1.303-26.164-0.315-0.91 0.111-2.588 0.175-3.152 1.261 8.473 0.556 20.266 0.261 28.687 1.892-9.561 0.063-18.805-1.013-28.056-0.315 0.93 2.605 4.199 1.251 6.305 1.261 7.228 0.034 16.572 1.005 23.328 1.576-8.201 0.498-16.297-0.648-23.643-0.315-1.861 0.084-3.895 0.069-5.359 0.945 7.278 2.599 19.582 0.173 27.74 1.892-3.646 0.424-7.805 0.509-11.979 0.315-5.059-0.235-10.541-1.107-14.501 0.63 5.706 2.071 15.722-0.17 21.436 1.892-6.68 0.753-15.497-1.377-22.065 0.315 2.881 2.41 7.953 0.864 12.609 1.261 4.381 0.373 11.064 0.021 14.185 0.945-8.917 0.373-19.204-0.24-29.001 0 0.248 1.539 2.697 0.876 3.152 2.207-0.834 1.225 0.383 2.639 0 4.413-0.752 0.996-2.285-0.748-2.521 0.63 1.575 0.001 2.305 0.848 2.206 2.522-1.536 1.616-3.225-2.001-3.782-0.315 0.196 1.484 2.813 0.549 3.467 1.576-0.312 1.474-0.512 3.062-1.576 3.783-1.543-2.135-3.642-3.714-4.729-6.305 1.717-1.796 2.271-6.542 0-8.196-5.866 23.347-10.836 47.585-11.033 76.603 3.375-0.516 5.494-2.283 8.827-2.838-0.101-6.027 0.698-11.275 0.315-17.338-0.347-5.479-2.242-10.34 0.63-12.924 0.126 6.135 0.054 11.273 0.315 17.021 0.187 4.123 0.541 8.895 0.315 13.871-0.489 10.768-2.342 23.355-2.837 34.045-0.284 6.141-0.135 13.436-0.945 18.598-1.257 8.006-8.376 13.67-6.305 23.012 0.631 0.842 3.304-0.361 3.468 0.947-0.906 0.354-2.458 0.062-3.153 0.631 0.921 1.916 5.674 0 6.936 1.576-1.894 1.117-5.062-0.943-6.304 0.629 2.201 1.566 6.62-0.805 8.826 0.945-2.075 0.973-6.625-0.531-8.196 0.947 3.098 1.6 8.305-0.785 11.348 0.945-3.005 0.986-8.616-0.631-10.718 1.26 3.123 2.098 8.876-0.328 12.294 1.262-3.096 1.107-9.085-0.68-11.664 0.945 2.826 1.482 8.947-0.33 11.35 1.576-3.969 0.186-7.339-0.227-11.034-0.314 0.655 18.834-2.352 34.006-6.305 48.23 7.622 2.184 19.466 4.756 27.741 1.576-3.51-0.799-9.111 0.494-11.665-1.26 4.551-0.74 10.369 2.287 12.61-0.947-3.219-1.732-8.938 0.967-11.664-1.26 3.314-0.801 8.091 0.719 11.664-0.316 0.35-2.428-0.803-4.402 0-6.305-3.514-0.059-7.419 0.273-9.773-0.945 3-0.643 6.107 0.365 9.458 0.314 0.132-2.188-0.243-7.021 0.315-9.771-2.484-0.879-7.205 0.479-9.142-0.945 2.948-0.072 7.2 0.102 9.142 0 0.188-1.66-0.234-2.709-0.315-4.098-2.745-0.408-7.241 0.936-8.511-0.945 3.186-0.244 5.408 0.473 8.511 0.314-0.083-2.127 0.479-5.641 0.315-8.826-2.457-0.359-5.104 1.182-6.305-0.631h6.305c-0.127-1.344 0.305-3.248-0.315-4.098-1.624-0.268-4.494 0.711-4.729-0.947 1.854-0.539 4.962 1.666 5.044-0.945-0.432-1.744-4.258 1.148-4.414-1.26 0.756-0.682 4.623 1.164 4.414-1.262-1.094-1.027-3.778 1.115-3.783-1.26 1.569-0.49 3.586 1.328 3.783-0.631-0.15-1.32-3.133 0.189-3.152-1.262h3.152c0.103-1.158-0.27-2.791 0.314-3.467-0.554-0.182-1.852 0.381-1.891-0.316 0.133-0.707 1.672-0.008 1.891-0.631 0.154-2.473-0.592-5.846 1.262-6.619-0.682 9.301-0.434 19.531-0.946 29.002 18.111 1.539 39.724-0.424 57.058 1.891-18.99-0.135-37.531-0.717-56.742-0.631 0.006 1.373 0.105 2.838-0.315 3.783 28.894 1.16 60.077 0.027 88.581 1.576-29.801 0.17-59.084-0.18-88.266-0.631-0.027 6.021-0.523 11.195 0 17.023 11.404 0.365 24.301-0.764 34.676 0.631-3.922 0.656-8.154 0.195-12.609 0-4.396-0.193-9.137 0.191-13.24 0-3.163-0.146-6.467-1.305-8.826 0.631 17.557 2.092 39.453-0.154 57.059 1.891-15.775-0.527-34.049 0.703-49.178 0-2.398-0.111-6.807-1.396-8.196 0.945 3.419 0.686 7.075 0.314 10.719 0.314 22.44 0 46.696 0.332 68.091 1.262-23.711-0.197-48.982 0.695-71.244-0.314-2.095-0.096-6.062-1.322-6.934 1.26 1.844 1.451 4.244 0.703 6.304 0.631 8.493-0.297 17.3-0.086 26.165 0.316 21.166 0.961 43.057-0.904 62.73 1.26-24.551-0.99-52.469 0.537-77.547-0.631-6.036-0.279-12.086-0.463-17.652 0.947 2.098 1.303 4.92 1.145 7.564 1.26 7.795 0.344 14.533-0.33 22.066 0 24.131 1.061 49.895-0.785 72.818 1.262-30.518-0.791-67.1 0.131-98.037-0.631-1.288-0.031-4.059-1.328-4.412 0.945 2.373 1.236 5.854 0.51 8.51 0.631 33.047 1.5 69.943-0.293 102.45 1.891-29.756-0.193-59.039 0.041-86.689-0.945-6.384-0.227-12.974-0.062-18.913 0-1.648 0.018-4.382-0.82-5.358 1.262 32.508 2.377 69.66 0.111 102.45 2.205-35.287 0.363-68.068-1.291-102.14 0 1.119 2.477 3.354 1.293 5.044 1.262 6.172-0.111 13.165 0 20.175 0 6.797 0 13.93-0.559 20.49 0 19.539 1.666 42.982-0.434 61.471 1.891-35.41-0.293-72.266-1.865-107.49-0.314 0.065 0.799 1.785 0.93 1.891 0.945 2.031 0.301 4.205-0.096 6.305 0 14.576 0.664 31.229-0.098 47.285 0.631 4.1 0.188 8.277 0.129 12.293 0.316 12.525 0.582 25.047-0.459 36.568 1.26-32.35-0.023-67.451-2.232-99.615-0.631-1.492 0.074-3.762-0.574-4.727 0.631 0.422 2.064 2.896 1.205 4.097 1.262 12.447 0.584 23.971 0.117 35.622 0.629 27.316 1.201 55.953-0.9 83.221 0 4.543-24.701 0.564-54.721 0.631-80.383 1.432 1.506 1.445 4.033 1.576 5.988 0.246 3.674 0.18 7.83 0 11.664-0.605 13.027 1.256 28.037 1.576 40.98 10.34 0.461 18.371-1.383 25.535-4.098-0.268-1.625-0.99-2.793-0.947-4.729-2.605 0.186-7.086 0.936-9.141-0.316 2.635-1.111 6.383 0.787 8.51-0.629-0.244-3.328-7.117-0.027-8.195-2.523 2.797-0.684 6.969 1.779 7.881-0.945-2.039-1.428-7.344 0.408-8.826-1.576 2.93-0.613 6.986 1.594 8.512-0.631-1.459-2.592-7.225 0.869-8.512-1.576 2.596-0.451 7.1 1.006 8.195-0.945-1.201-1.74-5.543-0.34-7.564-1.262 1.662-1.59 6.305 0.703 7.564-0.629-0.162-3.244-6.797 0.398-8.195-2.207h7.564c0.098-1.568-0.049-2.893-0.314-4.098-2.652-0.184-6.166 0.49-7.881-0.631 1.85-0.883 5.715 0.252 7.566-0.631-0.486-2.877-6.936 0.211-7.881-2.207 2.41-0.812 5.896 1.107 7.881-0.314-1.299-2.59-7.527-0.25-9.773-1.891 2.504-1.391 5.977 0.412 9.457 0v-3.783c-4.496-1.072-11.789 0.65-15.762-0.945 2.773-0.371 6.486-0.465 9.773-0.316 2.096 0.096 4.641 1.24 5.674-0.631-4.631-1.674-13.406 0.797-17.023-1.891 5.416 0.469 11.186 0.584 17.023 0.631 0.137-1.447 0.254-2.189-0.316-3.467-5.49-0.078-11.453 0.314-15.76-0.947 5.793-0.225 10.801 0.338 16.391 0.316 0.244-1.506-0.492-2.029-0.314-3.469-2.342 0.029-4.664 0.041-6.305-0.629 1.332-1.844 5.477 1.295 6.305-0.947 0.006-2.213-4.576 0.164-5.045-1.576 1.627-1.297 4.83 1.764 5.045-0.945-1.057-1.045-4.887 0.684-5.045-1.26 1.836-0.525 4.566 1.484 5.045-0.631 1.09-0.908-2.076-0.215-1.893-1.262 0.33-0.541 2.23-0.006 1.262-0.945-0.414-1.477-3.951 0.168-4.414-1.262 1.039-0.809 2.521 0.047 3.783 0-4.732-16.246-5.105-42.01-3.152-61.154 0.156-1.518-0.939-3.693 1.262-4.414-1.584 17.406-3.051 39.727 1.891 54.535 0.814-17.574 2.262-34.516 3.469-51.697-0.873-0.809-2.305-1.061-3.152-1.893 0.283-1.324-1.215-1.977 0.314-3.467-1.172-0.119-0.824 1.277-2.207 0.945-0.211-3.572-5.109-2.455-4.729-6.619-1.371 0.215-1.744-0.566-2.207-1.262-0.184-1.105 1.49-1.037 0.631-1.891-0.939-0.217-1.93-0.383-2.205-1.262-0.398-3.805-0.66-7.748-2.207-10.402 1.098-3.133-0.428-3.508-0.947-6.305 1.189-0.961 2.611 1.449 3.469 0 0.377-1.742-2.387-0.344-2.838-1.26 0.229-3.383-0.518-5.787-0.314-9.143 0.891-0.26 0.816 0.443 1.576 0.316v-2.207c2.434-1.561 3.189-4.797 4.412-7.566-0.936-1.287-1.346-4.193-0.314-5.674-1.752-3.086-2.902-8.664-1.576-12.924 0.234-1.074-1.162-0.521-1.26-1.262 1.799-1.77-1.051-4.843 0.629-6.62-0.693-0.252-1.258-0.633-1.262-1.577-0.223-1.169 0.539-1.353 0.316-2.522-0.678-1.586-2.156-1.61-0.631-3.152-0.467-0.584-1.629-0.473-1.576-1.577-0.031-0.978 0.387-1.506 0.631-2.207-1.939-1.207-4.211-5.179-1.576-7.25-2.104-0.418-3.266-1.778-3.467-4.098 0.963 0.228 1.148-0.323 1.891-0.315-0.324 1.854 1.924 2.855 3.467 3.783-0.438-2.399-1.475-4.2-3.15-5.359-0.557 1.931-3.02 0.077-4.414 0-0.559 0.781 0.449 1.875-0.945 2.207-7.678-0.834-17.561 0.538-24.273-1.261 6.094-0.209 13.029 0.42 18.6-0.315-4.107-3.633-14.033 0.425-18.916-2.206 5.379-0.192 11.533 0.394 16.393-0.316-2.199-3.307-9.84-0.615-14.186-1.261-0.473-0.07-1.84-0.085-1.891-0.945 4.488-0.695 11.105 1.129 14.816-0.946-3.738-2.596-12.025 0.923-15.133-1.892 3.318-0.056 7.357 0.075 10.404 0 1.018-0.024 2.76 0.55 3.15-0.63-0.6-2.116-4.082-1.26-6.619-1.26-2.855 0-5.963 0.394-7.564-0.631 4.496-1.506 11.832 1.758 14.816-1.26-3.723-2.122-11.621 0.904-15.447-1.577 6.285-0.355 11.379 0.72 16.076-0.315-3.141-3.547-11.711 0.166-16.076-1.892 3.1-0.583 7.971-0.244 11.348-0.315 1.162-0.024 2.977 0.551 3.467-0.63-0.025-1.684-1.586-1.135-2.836-1.26-3.961-0.4-9.105 0.688-11.664-0.631 2.756-0.216 5.23 0 8.197 0 2.143 0 4.811 0.516 5.674-0.63-2.34-3.807-11.346 0.237-14.5-2.207h12.924c-1.139-4.9-10.49 0.103-13.24-2.837 2.232-0.313 4.678 0.318 6.936 0.315 1.912-0.002 4.289 0.062 5.359-1.26-2.156-2.628-9.586 0.459-12.926-1.577 3.588-0.997 7.9 0.659 11.35-0.315-1.076-3.782-8.248-0.106-11.35-2.207 3.225-1.392 9.055 1.73 10.088-1.891-3.088-1.26-8.24 1.364-10.402-0.946 3.447-0.546 9.35 1.365 10.402-1.576-3.24-0.857-8.596 0.4-11.033-1.261 3.557-0.243 8.008 1.268 10.402-0.63-2.34-1.758-8.928 0.732-10.717-1.576 3.264-0.27 8.416 1.557 10.088-0.946-1.67-1.798-7.703 0.768-8.828-1.576 3.734-0.314 8.688 1.542 10.402-1.261-2.438-0.294-6.125 0.662-7.564-0.631 2.725-1.332 7.832 1.577 8.826-1.576-1.723-1.692-5.789 0.8-7.564-0.945 2.117-1.701 6.256 0.569 8.826-0.631 0.977-1.333 1.502-3.122 2.521-4.413 1.18-0.025 0.08 2.231 1.262 2.206-3.66-14.092-12.164-23.564-22.697-30.262-1.469-0.934-3.072-1.887-4.414-3.153 1.152-2.637 3.742-2.349 5.99-3.782 3.457-2.205 4.945-5.769 9.771-5.989 4.471-0.204 10.188 1.776 14.5 3.467 4.385 1.72 8.516 4.006 12.611 5.674 9.625 3.921 19.025 5.475 28.686 7.25-3.533-3.624-8.832-3.521-13.24-4.729-9.412-2.577-18.607-5.592-27.109-9.457-4.564-2.074-8.93-4.368-13.557-4.729-8.934-0.698-11.141 7.314-18.283 8.196-6.025 0.744-8.416-2.928-11.664-4.729-6.43-3.564-14.457-6.049-23.641-6.62-14.961-0.929-21.588 4.366-34.991 6.305 0.963 0.928 3.213 0.569 5.044 0.63-1.432 0.566-1.224 2.771-3.469 2.521-0.17 1.117 1.117 0.775 0.946 1.892-2.146 0.062-3.204 1.21-4.099 2.522 0.459 0.172 1.629-0.368 1.577 0.315-1.978 0.234-3.021 4.112-4.413 1.26 0.027 1.079 0.906 1.252 0.639 2.568zm-31.208-16.707c0.603-0.132 1.357-0.114 1.261-0.945-0.824-0.09-1.356 0.114-1.261 0.945zm-4.098 0.63c1.389-0.404 1.292 1.509 2.207 0.63 0.6-1.574-2.084-1.673-2.207-0.63zm25.534 0.946c0.805-0.141 1.449-0.442 1.892-0.946-1.116 0.356-1.794-1.324-2.522-0.315 0.583 0.047 0.192 1.067 0.63 1.261zm-30.893 0.631c1.115 0.169 1.625-0.268 1.892-0.946-0.702 0.244-1.71 0.182-1.892 0.946zm35.936 0.314c0.047-0.886-0.771-0.91-1.575-0.945-0.145 0.985 0.673 1.007 1.575 0.945zm-39.403 0.631c0.997 0.05 1.902 0.011 2.207-0.63-0.997-0.051-1.903-0.012-2.207 0.63zm44.762 0.63c-0.327-0.333-2.25-0.651-2.521 0 0.328 0.333 2.252 0.652 2.521 0zm-55.795 1.576c-5.07 1.17-9.549 2.641-14.186 3.467-2.082 0.372-6.234-0.387-5.989 2.837 3.946-0.121 8.353-1.959 12.925-2.837 2.284-0.438 4.649-0.808 6.935-1.26 2.256-0.448 5.016-0.252 6.62-1.892-1.077-2.394-4.273-0.783-6.305-0.315zm24.588 0.316c0.718 0.088 1.185-0.076 1.261-0.63-0.559 0.071-1.579-0.318-1.261 0.63zm12.61 0.315c0.533-1.114 2.104 0.999 2.521 0-0.654-0.35-3.164-1.109-2.521 0zm107.18 0.631c1.477-0.205 3.773 0.412 4.729-0.316-1.06-0.265-4.2-0.885-4.73 0.316zm-127.99 0.945c0.719 0.088 1.186-0.076 1.261-0.63-0.558 0.071-1.578-0.318-1.261 0.63zm125.46 0.63c4.311-0.209 9.457 0.42 13.24-0.315-3.86-0.889-9.7-0.886-13.24 0.315zm-159.19 4.729c0.827 1.33 2.55 2.622 4.098 3.782 1.385 1.039 3.342 3.027 4.729 2.207 0.867-0.749-0.505-1.909 0.315-2.837 0.549-0.023 0.98 0.071 1.261 0.315 0.009-5.034 5.902-4.185 8.511-6.62 1.944 0.052 3.305-0.478 4.098-1.577-8.725 0.525-15.851 2.644-23.012 4.73zm28.056-4.098c-0.219-0.247-1.759-0.701-1.892 0 0.553-0.087 1.573 0.888 1.892 0zm129.56 0.631c6.076 1.765 14.723-0.97 20.176 1.26-5.955-0.104-13.598 0.139-19.229 0-1.611-0.04-3.527-1.17-4.414 0.63 9.305-0.057 19.471 0.705 28.057 0.315-5.1-4.24-16.46-2.59-24.6-2.205zm-124.2 2.837c-0.024-0.55 0.07-0.98 0.315-1.261h-2.522c-0.024 1.18 1.237 1.075 2.207 1.261zm3.468-0.315c1.054 0.116 2.455 0.602 2.838-0.631-0.999 0.863-2.483-0.634-2.838 0.631zm116.01 0.945c-0.506 0.052-2.109-0.544-2.207 0.63 11.578-0.602 25.115 1.12 37.199 0-9.87-1.687-24.48-1.722-34.99-0.63zm-136.18 0.631c0.718 0.088 1.185-0.076 1.261-0.63-0.559 0.071-1.579-0.318-1.261 0.63zm26.48 0.945c0.753-0.192 2.286 0.395 2.522-0.316-0.755-0.642-2.227-0.945-2.522 0.316zm110.01 0.631c11.953 0.761 26.143 0.967 38.457 0.315-11.55-0.985-28.82-1.531-38.46-0.315zm-138.07 1.261c-0.178-0.768-0.27-1.622-1.261-1.576-0.082 1.027 0.374 1.517 1.261 1.576zm4.413-0.316h0.945v-0.945h-0.63c-0.017 0.403-0.404 0.436-0.315 0.945zm17.653 0c1.343-0.275 2.797 0.965 3.783 0-0.396-0.129-0.644-0.406-0.63-0.945-1.417-0.052-2.803-0.071-3.153 0.945zm-4.728 0c1.027-0.056 1.517 0.742 1.576-0.63-0.783-0.047-1.308 0.163-1.576 0.63zm23.957 0.631c-0.043-0.587-0.207-1.053-0.63-1.26-0.497 0.467-0.352 1.407 0.63 1.26zm-4.097-0.946c-1.83-0.253-4.08 0.397-5.045 0 0.765 1.817 3.875 0.573 5.045 0zm102.77 1.577c3.043 0.676 7.26 0 11.033 0 11.256 0 22.895 0.703 32.785 0-13.723-2.057-30.443-0.078-44.764-0.946 0.09 1.178 0.33 0.81 0.94 0.946zm-143.75 0.945c-0.093-0.62 0.426-0.625 0.631-0.945-0.601-0.136-0.792-0.679-1.577-0.631 0.105 0.735 0.324 1.358 0.946 1.576zm40.981 0.315c0.559-0.071 1.578 0.318 1.261-0.63h-1.261v0.63zm6.935 0c0.498 0.462 2.502 0.651 2.206-0.63-0.891 0.054-2.163-0.271-2.206 0.63zm97.405 0c13.711 1.21 30.855 0.667 45.078 0.315-14.64-0.674-30.45-1.415-45.08-0.315zm-138.39 0.316c0.559-0.072 1.579 0.318 1.261-0.63h-1.261v0.63zm21.437 0.315c1.165-0.201 3.14 0.409 3.782-0.315-0.517-1.105-3.553-0.803-3.782 0.315zm10.086-0.631c-0.721 1.102-1.116-0.745-2.206-0.315-0.689 1.466 3.494 1.157 2.206 0.315zm139.33 0.946c-7.697 0.363-15.381 0.315-22.066 1.261 14.262-0.109 29.916 1.151 43.504-0.315-6.37-1.245-14.07-1.294-21.43-0.946zm-164.55 1.576h2.206c0.16-1.557-2.199-0.973-2.206 0zm34.045 0c0.688 0.53 2.379 0.045 3.152-0.315-1.148-0.402-2.685-0.957-3.152 0.315zm-38.773 0h0.63c0.49-0.776-1.071-0.927-0.945-0.315 0.191 0.017 0.372 0.047 0.315 0.315zm17.022 0c0.469 0.496 1.409 0.352 1.261-0.63-0.719-0.089-1.185 0.076-1.261 0.63zm2.838 0.315h0.63c0.017-0.402 0.404-0.436 0.315-0.945h-0.945v0.945zm7.564 0c0.115-1.06-1.365-0.525-1.891-0.945-0.184 1.129 0.934 0.958 1.891 0.945zm17.338-0.315c-0.059-0.467-0.763-0.289-1.261-0.315-0.672 1.159 1.606 1.422 1.261 0.315zm109.39 18.599c7.955 0.85 17.145-0.426 24.588 0 1.172 0.068 2.379 0.404 3.467 0.315 3.254-0.266 7.035-5.035 8.828-7.25 2.273-2.812 3.762-5.712 6.305-7.881-0.006-0.462 1.33-1 0-0.946-0.904 0.062-1.721 0.04-1.576-0.945 1.479-0.382 3.172 1.143 3.783-0.315-17.861-1.485-40.338-1.325-58.635-0.315 3.57 1.48 7.92 0.63 12.295 0.63 13.637 0 28.588-0.258 41.295 0.315-11.359 0.521-25.102 1.18-37.197 0.63-4.682-0.212-9.338-0.65-13.24 0.946 16.617 1.187 34.682-1.025 50.752 0.63-15.42 0.865-33.002-0.429-47.6 1.26 14.676 1.785 31.77-0.748 46.34 0.946-14.398 1.048-31.48-0.588-45.395 0.945 13.994 1.517 28.906 0.188 43.188 1.262-13.668 0.938-29.521-0.31-43.188 0.63 2.627 1.522 6.189 0.946 9.457 0.946h20.807c3.35 0 6.955-0.504 9.771 0.63-10.459 0.99-23.836-0.75-34.045 0.316-1.1 0.114-2.73-0.072-3.467 0.946 10.293 1.075 23.402-0.401 33.729 0.315 1.264 0.087 3.029 0.077 4.1 0.945-9.24-0.309-19.609 0.413-28.688 0-2.855-0.129-5.869-0.992-8.195 0.631 10.781 1.197 24.098-0.14 34.676 1.26-10.74 1.147-23.223-1.22-33.1 0.945 10.074 0.645 21.266 0.171 31.838 0.316 0 0.316 0.256 0.375 0.316 0.63-10.26 1.133-22.23-1.253-31.23 1.263zm-161.4-17.338c-0.193-0.092-1.213-0.784-1.262 0 0.195 0.093 1.215 0.785 1.262 0zm4.098 0.316c-0.059-0.468-0.762-0.29-1.261-0.315-0.673 1.159 1.606 1.421 1.261 0.315zm2.522 0.63c0.789 0.053 0.986-0.484 1.26-0.945h-1.26v0.945zm11.663-0.63c-1.165 0.201-3.14-0.409-3.782 0.315 0.815 0.492 3.567 1.333 3.782-0.315zm12.925 0.315c-1.179 0.418-2.18-0.94-2.837 0 0.543 0.431 2.518 1.238 2.837 0zm-11.348 0.63c0.595-0.139 1.9 0.428 1.576-0.63h-1.576v0.63zm22.697 0.315c0.791-0.259 2.713 0.613 2.521-0.63-0.534-0.716-2.105 0.186-2.521 0.63zm5.043-0.315c-0.495-0.136-0.27-0.992-1.262-0.63-0.33 0.797 1.065 1.397 1.262 0.63zm-2.522 1.892c-0.122 0.977 1.519 1.283 1.577 0.315-0.558-0.277-0.921-1-1.577-0.315zm-34.045 1.575c-0.626-0.004-0.4-0.859-1.261-0.63-0.056 0.911 1.065 1.737 1.261 0.63zm7.565 0.316c-0.927 0.065-2.088-1.246-2.837-0.316 0.368 0.053 0.343 0.499 0.315 0.946 1.275 0.209 3.518-0.245 2.837-0.946-0.017 0.193-0.047 0.374-0.315 0.316zm5.044 0.946c1.159 0.673 1.422-1.605 0.315-1.261 0.071 0.595-0.354 0.695-0.315 1.261zm12.294 0.315c0.906 0.065 1.602-0.08 1.893-0.63-0.994 0.152-0.715-0.968-1.893-0.63v1.26zm-2.836 1.891h1.26c0.219-1.244-1.328-1.032-1.26 0zm5.674 0.316c-0.869-0.489 0.994-0.867 1.26-1.261h-2.205c-0.055 0.472 0.111 1.164-0.316 1.261-0.787 0.225-1.295-1.388-1.891-0.315 0.687 0.276 2.379 1.169 3.152 0.315zm1.891 7.88h5.674c-0.501-2.148-5.104-1.977-5.674 0zm141.22 1.892c-1.234 0-8.482 0.019-5.674 0.315 3.395 0.357 10.127 2.776 12.293 0-1.81-0.444-3.56-0.315-6.62-0.315zm-21.44 9.456c0.088-0.718-0.076-1.184-0.631-1.26 0.07 0.558-0.31 1.578 0.63 1.26zm2.21 0.946c-0.141-0.596 0.428-1.9-0.631-1.576-0.05 0.783 0.16 1.309 0.63 1.576zm-5.04 5.359c0.66 0.181 0.9 0.781 1.893 0.63 0-1.172-1.48-1.537-1.89-0.63zm2.52 1.261h1.578c0.09-1.478-1.46-0.843-1.58 0zm2.52 1.261c0.996-0.435 1.902 0.78 2.205 0-0.244-0.07-0.365-0.264-0.314-0.63-0.34 0.329-2.71 0.2-1.9 0.63zm-5.04 0.631c0.51 0.538 1.625 0.289 1.893-0.315-1.12 0.277-1.63-0.81-1.89 0.315zm0.31 5.359c0.062-0.903 0.039-1.72-0.945-1.576-0.06 0.902-0.04 1.72 0.94 1.576zm7.25 1.261c0.49 0.083 0.219 0.691 0 0.945 1.123 0.073 1.648-0.454 1.576-1.576-0.79-0.046-1.53-0.059-1.58 0.631zm-5.36 0c-0.059-0.467-0.762-0.289-1.262-0.315-0.67 1.159 1.61 1.422 1.26 0.315zm0.32 4.097c1.047-0.11 1.367-0.944 1.893-1.576-1.22-0.061-1.81 0.501-1.89 1.576zm8.82 2.207c-0.713-1.072-0.541-3.029-1.891-3.467-0.4 1.989 1.12 3.7 1.89 3.467zm-3.78-2.837c-1.094 0.253-1.213-0.47-2.207-0.315-0.58 1.515 2.32 1.143 2.21 0.315zm5.99 9.142c-0.16-0.785 0.012-1.902-0.945-1.891-0.57 0.604-0.09 1.941 0.94 1.891zm2.21 5.359c0.246-1.415-1.037-2.938-1.576-2.522 0.61 0.757 0.25 2.488 1.58 2.522zm-1.89 1.891c0.441 0.78 1.086 0.556 1.891 0.315-0.174-0.561-0.162-1.309-0.631-1.576-0.1 0.742-1.5 0.188-1.26 1.261zm0.94 2.837c0.861 0.202 2.502-0.4 1.576-0.945-0.475 0.854-1.359-0.502-1.891-0.63-0.1 0.73 0.05 1.21 0.31 1.575zm-6.3-0.63c-0.324 1.06 0.98 0.491 1.576 0.63 0.04-1.267-0.82-0.833-1.58-0.63zm9.14 3.152c0.371 0.363 1.113 0.357 1.891 0.316 0.15-0.991-0.393-1.289-0.945-1.577 0.28 1.012-0.81 0.654-0.94 1.261zm-140.6 11.034c0.376-0.937-1.328-1.354-1.574-0.631 0.6 0.13 0.569 0.9 1.574 0.63zm146.58 2.21c-0.396-0.069-0.645-0.492-0.631 0.315 0.535 0.816 1.467-0.611 2.523-0.315-0.369-0.999-0.252-2.482-1.262-2.838-0.01 1.15 0.18 2.5-0.63 2.85zm-148.48 0.94c-0.26-0.891 0.444-0.816 0.316-1.576-1.006 0.27-0.976-0.496-1.577-0.63-0.022 1.18 0.507 1.81 1.261 2.21zm151.32 3.78c0.719 0.088 1.184-0.076 1.26-0.63-0.72-0.08-1.19 0.08-1.26 0.63zm0.63 13.56c0.467 0.496 1.408 0.351 1.26-0.632-0.72-0.09-1.19 0.07-1.26 0.63zm4.41 0.94h0.947c0.086-0.718-0.076-1.184-0.633-1.26-0.1 0.43-0.45 0.61-0.32 1.26zm-1.26 2.21c0.504-0.877-1.361-0.871-1.262-0.314 0.42 0.1 0.6 0.45 1.26 0.31zm0.63 2.52h0.631c0.018-0.404 0.404-0.438 0.314-0.947h-0.629c-0.01 0.41-0.4 0.45-0.31 0.95zm2.52 0.32c-0.072-0.559 0.316-1.578-0.631-1.262-0.09 0.72 0.08 1.18 0.63 1.26zm-2.2 5.04c0.365 0.266 0.844 0.416 1.576 0.316-0.002-0.943-0.566-1.326-1.262-1.578-0.11 0.43-0.46 0.6-0.32 1.26zm1.26 5.68c0.273-1.01-0.486-0.984-0.947-1.26-0.09 0.82 0.11 1.35 0.95 1.26zm0.94 2.2c0.918 0.465 0.918-1.408 0-0.945v0.94zm0.32 2.84c-0.596 0.07-0.695-0.355-1.26-0.316-0.51 0.88 1.36 0.88 1.26 0.32zm4.41 17.97h0.629c0.018-0.404 0.404-0.438 0.316-0.945h-0.945c-0.01 0.32-0.01 0.63-0.01 0.95zm-9.77 5.36c1.029 0.084 0.912-0.98 1.576-1.26-0.77 0.17-1.63 0.27-1.58 1.26zm-0.95 3.78c0.426 0.1 0.602 0.449 1.262 0.316-0.434-0.719 0.812-1.186 0-1.262-0.08 0.64-1.17 0.29-1.26 0.94zm6.94 0.63c0.297 0.328 1.623 0.287 1.576-0.631-0.79-0.05-1.54-0.06-1.58 0.63zm-0.32 3.78c1.139 0.053 1.139-1.631 0-1.576v1.58zm-2.52 0.32v0.945c1.137 0.086 2.182 0.08 1.893-1.26-0.78-0.04-1.52-0.04-1.89 0.32zm-1.58 2.21c-0.219-0.246-1.758-0.701-1.891 0 0.22 0.24 1.76 0.7 1.89 0zm5.05 2.83c-0.152-0.99 0.447-1.232 0.629-1.891-1.31-1.15-2.29 1.69-0.63 1.89zm-1.58 2.21c-0.494-1.033-0.469-1.389-0.631-2.207-0.855 0.197-2.502-0.398-2.838 0.316 1.49 0.3 2.25 1.32 3.47 1.89zm-173.38 1.26c-0.598 16.182 0.797 35.215 0 50.752-0.132 2.582-1.633 6.211 0.63 7.881 0.824-18.615-0.203-39.082 0.63-57.688 0.96-0.787 3.002-0.932 4.729-1.576 1.128-0.42 4.38-1.496 2.837-2.521-3.467 0.53-5.901 2.09-8.826 3.16zm2.207 1.58c-0.5 17.889-0.545 37.914 0 55.797 2.352-6.877 0.568-18.26 0.63-26.795 1.426-0.57 3.889-0.105 4.414-1.576-1.784-0.512-2.93 1.258-4.098 0.314 0.004-8.717-0.118-17.561 0.315-25.85 2.063-1.299 6.249-0.477 5.99-4.098h-0.631c-2.415 0.53-4.099 1.78-6.62 2.21zm170.23 0.94c0.131-0.695-0.945-1.738-1.262-0.945 0.82-0.09 0.24 1.23 1.26 0.95zm-166.45 2.21c0.18 7.699-0.38 16.141 0.315 23.328 2.17-0.965 1.546-4.139 1.577-6.621 0.075-6.174 0.117-12.994 0.945-17.652h-0.63c-0.789 0.26-1.237 0.86-2.207 0.94zm-0.315 39.4c-0.779 1.156-0.997 1.549 0 2.836 1.613-3.846 1.935-9.965 1.26-15.131h-0.945c-0.692 3.51-0.136 8.27-0.315 12.29zm-16.707 14.82c3.17 0.922 6.913-0.203 9.771-0.631v-11.35c-7.477-0.23-8.088 6.41-9.771 11.98zm3.468 1.58c3.038-0.229 7.527 2.002 9.141-0.631-2.781-0.67-7.011-0.38-9.141 0.63zm5.043 1.57c-3.264-0.594-7.834-1.211-10.718-0.631-0.371 0.049-0.895-0.055-0.946 0.314 1.922 1.432 5.993 2.01 9.457 2.207 1.855 0.105 4.582 0.443 5.359-0.631 0.185-1.58-1.945-1.04-3.152-1.26zm-8.827 2.21c-0.367 0.051-0.342 0.496-0.315 0.945-2.01 11.229-0.795 23.125 0.946 33.414 1.759 10.396 4.25 20.275 8.826 27.426 2.444-12.48 6.455-25.809 5.359-40.035-0.556-7.227-4.873-13.102-3.467-20.49-3.867-0.33-7.18-1.22-11.349-1.25zm191.04 65.88c0.031-0.979-0.143-1.748-0.631-2.207-0.06 1-0.02 1.91 0.63 2.21zm-14.82 0.63c-0.201 5.658 0.266 12.264 0 17.969-0.156 3.367-1.812 7.348 0.631 9.457 0.27-4.955 0.389-10.441 0.629-15.762 0.131-2.852-0.619-6.141 0.631-8.51-0.1 5.271 0.641 10.004 0.316 15.131-0.215 3.391-1.66 6.941 0.314 9.457 0.553-1.678 0.314-4.158 0.314-6.619 0-2.305-0.582-5.316 0.947-6.307 0.301 3.104-0.533 6.916-0.316 10.088 0.098 1.41-0.205 4.336 1.893 3.783 0.498-1.34-0.455-3.84-0.631-6.305-0.176-2.436-0.521-5.422 1.26-5.674 1.156 1.928 0.496 6.084 0.945 8.826 0.252 1.531 0.494 3.83 2.838 3.152 0.77-7.408-5.648-16.982-0.314-23.328-0.76-1.451-1.904-4.184-0.945-6.305 0.984 1.957 0.299 5.586 2.521 6.305 0.146-2.148-1.791-3.875-0.631-5.988 1.111 1.725 0.354 5.32 2.521 5.988-0.578-2.783-0.258-6.467-2.521-7.564-3.36 0.82-7.1 1.29-10.4 2.19zm15.45 8.51c-0.691-3.725-1.17-7.658-2.838-10.404 0.61 3.8 1.03 7.8 2.84 10.4zm1.89-5.67c-0.375-1.518-0.32-3.463-1.262-4.412 0.24 1.44 0.72 4.3 1.26 4.41zm-19.23-1.89c0.047 5.061-0.094 10.059-0.314 14.5-0.197 3.953-1.854 8.363 0.631 10.719 0.738-8.193 0.525-17.34 0.945-25.85-0.402-0.018-0.436-0.404-0.945-0.316-0.02 0.41-0.41 0.44-0.32 0.95zm-4.41 22.7c1.561-6.74 1.381-15.221 1.576-23.328h-0.945c0.5 8.43-2.05 15.93-0.63 23.33zm2.52-22.39c0.176 6.029-0.502 10.752-0.945 16.078-0.229 2.736-1.244 6.477 0.945 7.879 0.832-7.785 0.787-16.443 1.262-24.586-0.404-0.018-0.438-0.404-0.947-0.316 0.03 0.44-0.14 0.7-0.3 0.95zm-6.62 19.86c1.646-5.709 1.467-13.246 1.891-20.176-0.07-0.246-0.264-0.367-0.631-0.314-0.17 6.87-1.91 13.86-1.26 20.49zm1.57 1.58c2.26-1.846 1.105-5.816 1.26-8.826 0.215-4.186 1.232-8.641 0.945-12.609-0.066-0.354-0.35-0.49-0.629-0.629-0.22 7.65-1.8 13.96-1.57 22.07zm-158.56-20.81c-3.295 7.842-7.822 14.455-11.349 22.066 0.817 0.338 1.546 0.766 2.838 0.631 2.046-1.754 3.523-5.521 5.674-9.457 2.299-4.209 6.345-11.705 9.772-5.99 0.771-1.541 0.607-4.016 2.521-4.412-3.126 8.746-7.444 16.303-10.718 24.902h3.783c2.797-8.025 7.098-16.229 8.826-24.273-2.028 2.596-1.832 7.416-4.729 9.143 1.491-3.344 3.036-6.631 4.098-10.402-3.618-0.69-7.213-1.4-10.716-2.21zm186.93 18.29c-1.305-5.418-1.932-11.518-3.781-16.393 1.19 5.53 1.52 11.93 3.78 16.39zm-163.92 3.15c3.168-4.713 4.717-12.725 5.044-19.229-1.64 6.24-4.149 13.29-5.044 19.23zm-4.728 2.21c3.221-5.816 4.564-13.508 6.619-20.49-0.07-0.244-0.008-0.623-0.314-0.631-2.231 6.7-5.343 14.2-6.305 21.12zm0.631-10.09c-1.142 3.352-3.609 6.754-2.837 10.719 2.8-6.342 4.789-13.494 6.621-20.807-0.071-0.244-0.01-0.621-0.316-0.629-1.347 3.52-2.247 7.13-3.468 10.72zm-5.045 10.72c2.979-6.479 4.921-13.994 7.25-21.121h-0.945c-1.501 7.43-5.75 13.79-6.305 21.12zm-1.26-18.92c0.909-1.82-0.778-0.83 0 0zm2.207 3.79c-1.754 5.113-5.131 10.281-5.36 15.762 2.392-6.963 4.931-13.773 7.25-20.807-1.432 1.3-1.289 3.29-1.89 5.05zm-3.153 15.76c1.905-6.293 5.328-12.746 5.989-19.23-1.46 6.73-5.748 12.32-5.989 19.23zm168.96-14.5c-0.104-1.48 0.453-5.275-0.947-4.414 0.75 1.04-0.06 3.63 0.95 4.41zm-155.41 9.77c2.636-1.43 2.994-7.014 3.467-10.404 0.162-1.16 0.947-2.826 0-3.467-0.828 4.95-2.425 9.13-3.467 13.87zm-3.783 1.58c1.176-4.605 3.734-9.504 3.467-14.502-0.701 5.07-4.199 9.03-3.467 14.5zm169.91 0.94c-1.064-5.451-3.125-9.904-5.043-14.502 1.8 4.19 2.46 11.8 5.04 14.5zm-184.73 3.47c0.949-2.623 1.858-5.287 3.153-7.566 0.164-1.043 0.805-2.609 1.261-4.098 0.244-0.793 1.423-4.076 0.63-2.836-1.396 4.92-4.59 9.71-5.044 14.51zm3.153-14.5c-1.463 5.156-4.792 10.127-5.359 15.131 2.038-4.58 4.564-10.36 5.359-15.13zm169.28 2.83c0.051-1.102-0.084-2.018-0.631-2.521 0.03 1.02 0.17 1.94 0.63 2.52zm-150.99 4.42c1.031-1.076 1.786-4.09 0.945-5.99-0.162 1.94-1.713 4.16-0.945 5.99zm127.35-0.95c0.307-0.967 0.674-3.514 0-4.414 0.18 1.44-0.94 3.25 0 4.41zm27.43 3.47c-0.361-2.688-0.619-5.477-1.578-7.566 0.31 2.74 0.5 5.6 1.58 7.57zm-9.78-3.78c0.086-0.428-0.195-1.23-0.314-0.629-0.09 0.43 0.19 1.23 0.31 0.63zm0.64 6.93c0.035-1.516-0.203-4.406-0.631-4.412-0.05 1.72-0.01 3.36 0.63 4.41zm12.6-1.57c0.152-1.625-0.24-2.701-1.262-3.152 0 1.47-0.16 3.1 1.26 3.15z"/>
</g>
<metadata><rdf:RDF><cc:Work><dc:format>image/svg+xml</dc:format><dc:type rdf:resource="http://purl.org/dc/dcmitype/StillImage"/><cc:license rdf:resource="http://creativecommons.org/licenses/publicdomain/"/><dc:publisher><cc:Agent rdf:about="http://openclipart.org/"><dc:title>Openclipart</dc:title></cc:Agent></dc:publisher><dc:title>pig stand</dc:title><dc:date>2007-07-16T03:39:00</dc:date><dc:description>a stand for selling barbeque shaped like a pig from a US patent</dc:description><dc:source>http://openclipart.org/detail/4401/pig-stand-by-johnny_automatic</dc:source><dc:creator><cc:Agent><dc:title>johnny_automatic</dc:title></cc:Agent></dc:creator><dc:subject><rdf:Bag><rdf:li>barbeque</rdf:li><rdf:li>bbq</rdf:li><rdf:li>building</rdf:li><rdf:li>clip art</rdf:li><rdf:li>clipart</rdf:li><rdf:li>externalsource</rdf:li><rdf:li>image</rdf:li><rdf:li>media</rdf:li><rdf:li>pig</rdf:li><rdf:li>png</rdf:li><rdf:li>public domain</rdf:li><rdf:li>shop</rdf:li><rdf:li>stand</rdf:li><rdf:li>svg</rdf:li><rdf:li>uspto</rdf:li></rdf:Bag></dc:subject></cc:Work><cc:License rdf:about="http://creativecommons.org/licenses/publicdomain/"><cc:permits rdf:resource="http://creativecommons.org/ns#Reproduction"/><cc:permits rdf:resource="http://creativecommons.org/ns#Distribution"/><cc:permits rdf:resource="http://creativecommons.org/ns#DerivativeWorks"/></cc:License></rdf:RDF></metadata></svg>
