<?xml version="1.0" encoding="iso-8859-1"?>
<!-- Generator: Adobe Illustrator 18.1.1, SVG Export Plug-In . SVG Version: 6.00 Build 0)  -->
<svg version="1.1" id="Capa_1" xmlns="http://www.w3.org/2000/svg" xmlns:xlink="http://www.w3.org/1999/xlink" x="0px" y="0px"
	 viewBox="0 0 196.461 196.461" style="enable-background:new 0 0 196.461 196.461;" xml:space="preserve">
<g>
	<g>
		<path style="fill:#010002;" d="M58.829,124.523c-1.371,0-2.484,1.113-2.484,2.484v46.156c0,1.374,1.113,2.487,2.484,2.487
			c1.367,0,2.48-1.117,2.48-2.487v-46.156C61.309,125.632,60.196,124.523,58.829,124.523z"/>
		<path style="fill:#010002;" d="M85.159,124.523c-1.371,0-2.487,1.113-2.487,2.484v46.156c0,1.374,1.117,2.487,2.487,2.487
			s2.484-1.117,2.484-2.487v-46.156C87.646,125.632,86.529,124.523,85.159,124.523z"/>
		<path style="fill:#010002;" d="M111.184,124.523c-1.371,0-2.484,1.113-2.484,2.484v46.156c0,1.374,1.117,2.487,2.484,2.487
			c1.374,0,2.484-1.117,2.484-2.487v-46.156C113.668,125.632,112.558,124.523,111.184,124.523z"/>
		<path style="fill:#010002;" d="M136.898,124.523c-1.374,0-2.487,1.113-2.487,2.484v46.156c0,1.374,1.117,2.487,2.487,2.487
			s2.484-1.117,2.484-2.487v-46.156C139.382,125.632,138.269,124.523,136.898,124.523z"/>
		<path style="fill:#010002;" d="M172.64,87.664l10.414-10.418c2.072-2.083,2.072-5.454,0-7.53l-7.383-7.383
			c-0.916-0.905-2.28-1.432-3.754-1.432c-1.485,0-2.856,0.526-3.786,1.442l-19.487,19.501V37.381c0-0.548,0-1.836-8.829-26.784
			l-0.157-0.433l0.412-0.186c1.775-0.787,2.91-2.541,2.91-4.466V4.885c0-2.691-2.187-4.885-4.889-4.885H112.1
			c-2.691,0-4.878,2.194-4.878,4.885v0.63c0,2.022,1.267,3.858,3.157,4.567l0.455,0.175l-0.165,0.462
			c-9.108,24.823-9.108,26.111-9.108,26.659v49.56L70.99,52.795L42.202,75.567L28.971,62.336c-0.905-0.905-2.28-1.432-3.754-1.432
			s-2.852,0.526-3.779,1.442l-7.358,7.376c-1.009,0.998-1.568,2.341-1.568,3.765c0,1.417,0.551,2.759,1.557,3.776l10.411,10.407
			H9.373v27.285h12.505l17.304,81.115l0.079,0.39h112.959l22.35-81.512h12.519V87.664C187.088,87.664,172.64,87.664,172.64,87.664z
			 M43.283,191.494l-16.287-76.398h142.377l-20.947,76.398H43.283z M14.34,92.631h22.132L17.243,73.592l7.87-8.092l26.988,26.981
			l0.147,0.15h92.631l26.927-27.128l8.095,7.881l-19.254,19.247h21.473v17.35H14.34V92.631z M138.516,6.141h-4.796l0.999,2.845
			c5.859,16.488,9.509,27.35,9.652,28.248l0.011,48.873l-1.321,1.31h-36.196c-0.565,0-1.041-0.465-1.041-1.038l-0.011-48.69
			c0.175-1.381,3.919-12.107,10.024-28.681l1.052-2.888l-5.404-0.125V4.338l0.651-0.075l26.677,0.129L138.516,6.141z M54.302,87.664
			l-8.8-8.8l24.88-19.301l25.166,28.105H54.302V87.664z"/>
	</g>
</g>
<g>
</g>
<g>
</g>
<g>
</g>
<g>
</g>
<g>
</g>
<g>
</g>
<g>
</g>
<g>
</g>
<g>
</g>
<g>
</g>
<g>
</g>
<g>
</g>
<g>
</g>
<g>
</g>
<g>
</g>
</svg>
